G04 ================== begin FILE IDENTIFICATION RECORD ==================*
G04 Layout Name:  C:/Users/user/Desktop/work/¶äºÎ±â/allegro/AVRUSB5.brd*
G04 Film Name:    BOTTOM*
G04 File Format:  Gerber RS274X*
G04 File Origin:  Cadence Allegro 17.2-P019*
G04 Origin Date:  Mon Jul 29 16:41:36 2019*
G04 *
G04 Layer:  ETCH/BOTTOM*
G04 Layer:  PIN/BOTTOM*
G04 Layer:  VIA CLASS/BOTTOM*
G04 *
G04 Offset:    (0.000 0.000)*
G04 Mirror:    No*
G04 Mode:      Positive*
G04 Rotation:  0*
G04 FullContactRelief:  No*
G04 UndefLineWidth:     0.000*
G04 ================== end FILE IDENTIFICATION RECORD ====================*
%FSLAX25Y25*MOMM*%
%IR0*IPPOS*OFA0.00000B0.00000*MIA0B0*SFA1.00000B1.00000*%
%ADD11C,1.321*%
%ADD12R,1.321X1.321*%
%ADD13C,1.575*%
%ADD14R,1.575X1.575*%
%ADD15O,1.2X1.9*%
%ADD10C,.61*%
%ADD16C,.254*%
%ADD20C,1.58*%
%ADD18C,1.834*%
%ADD19C,2.088*%
%ADD17O,1.712X2.412*%
G75*
%LPD*%
G75*
G36*
G01X23000100Y19800100D02*
Y24199900D01*
X32399900D01*
Y19800100D01*
X23000100D01*
G37*
%LPC*%
G75*
G36*
G01X28795600Y23921200D02*
Y24078800D01*
G02X28821200Y24104400I25650J-50D01*
G01X28978800D01*
G02X29004400Y24078800I-50J-25650D01*
G01Y23921200D01*
G02X28978800Y23895600I-25650J50D01*
G01X28821200D01*
G02X28795600Y23921200I50J25650D01*
G37*
G36*
G01X26795600Y22721200D02*
Y22878800D01*
G02X26821200Y22904400I25650J-50D01*
G01X26978800D01*
G02X27004400Y22878800I-50J-25650D01*
G01Y22721200D01*
G02X26978800Y22695600I-25650J50D01*
G01X26821200D01*
G02X26795600Y22721200I50J25650D01*
G37*
G36*
G01X25595600D02*
Y22878800D01*
G02X25621200Y22904400I25650J-50D01*
G01X25778800D01*
G02X25804400Y22878800I-50J-25650D01*
G01Y22721200D01*
G02X25778800Y22695600I-25650J50D01*
G01X25621200D01*
G02X25595600Y22721200I50J25650D01*
G37*
G36*
G01X23458400Y23244000D02*
Y23376000D01*
G02X23484000Y23401600I25550J50D01*
G01X23616000D01*
G02X23641600Y23376000I50J-25550D01*
G01Y23244000D01*
G02X23616000Y23218400I-25550J-50D01*
G01X23484000D01*
G02X23458400Y23244000I-50J25550D01*
G37*
G36*
G01X26692500Y23518400D02*
X26644800Y23470600D01*
Y23441000D01*
X26597000Y23393200D01*
X26232600D01*
X26107500Y23518400D01*
X26004000D01*
G02X25978400Y23544000I-50J25550D01*
G01Y23676000D01*
G02X26004000Y23701600I25550J50D01*
G01X26136000D01*
G02X26161600Y23676000I50J-25550D01*
G01Y23572500D01*
X26264400Y23469800D01*
X26565200D01*
X26568200Y23472800D01*
Y23502400D01*
X26638400Y23572500D01*
Y23676000D01*
G02X26664000Y23701600I25550J50D01*
G01X26796000D01*
G02X26821600Y23676000I50J-25550D01*
G01Y23544000D01*
G02X26796000Y23518400I-25550J-50D01*
G01X26692500D01*
G37*
G36*
G01X26941600Y22387800D02*
X27139700Y22585900D01*
Y23136200D01*
X27136700Y23139200D01*
X25885500D01*
G02Y23215800I-41000J38300D01*
G01X27168500D01*
X27216300Y23168000D01*
Y22554100D01*
X26995800Y22333600D01*
G02X26938500Y22389000I-95723J-41673D01*
G01X26941600Y22387800D01*
G37*
G36*
G01X24890100Y22379600D02*
X24570200Y22059700D01*
X24552000D01*
G02X24541500Y22145100I-40996J38305D01*
G01X24545000Y22142800D01*
X24835900Y22433800D01*
Y22435900D01*
G02X24892200Y22379600I56100J-200D01*
G01X24890100D01*
G37*
G36*
G01X29962500Y22580800D02*
X30010300Y22533000D01*
Y22177400D01*
X30097100Y22090600D01*
X30099200D01*
G02X30042900Y22034300I-200J-56100D01*
G01Y22036400D01*
X29933700Y22145600D01*
Y22501200D01*
X29930700Y22504200D01*
X29441500D01*
G02Y22580800I-41000J38300D01*
G01X29962500D01*
G37*
G36*
G01X25501800Y22544400D02*
X25658400Y22387800D01*
X25661500Y22389000D01*
G02X25783800Y22229700I38510J-97031D01*
G03X25791900Y22213400I8155J-6110D01*
G01X25846800D01*
X25906100Y22154100D01*
X25908200D01*
G02Y22041900I-200J-56100D01*
G01X25906100D01*
X25863900Y21999700D01*
X25797100D01*
G02X25646000Y22127300I-97112J38268D01*
G01X25648400Y22128800D01*
Y22136800D01*
X25635700D01*
X25623000Y22149500D01*
X25484800D01*
X24622100Y23012200D01*
X23987100D01*
X23941400Y23057900D01*
X23939300D01*
G02X23995600Y23114200I200J56100D01*
G01Y23112100D01*
X24018900Y23088800D01*
X24653900D01*
X25516600Y22226100D01*
X25599900D01*
G03X25608800Y22241300I-16J10215D01*
G02X25603000Y22330500I91216J50720D01*
G01X25604200Y22333600D01*
X25425200Y22512600D01*
Y22819000D01*
G02X25501800I38300J41000D01*
G01Y22544400D01*
G37*
G36*
G01X27344300Y21985900D02*
X27366600Y21963600D01*
X27368700D01*
G02X27312400Y21907300I-200J-56100D01*
G01Y21909400D01*
X27267700Y21954100D01*
Y22021900D01*
X27308400Y22062500D01*
Y22166000D01*
G02X27334000Y22191600I25550J50D01*
G01X27466000D01*
G02X27491600Y22166000I50J-25550D01*
G01Y22034000D01*
G02X27466000Y22008400I-25550J-50D01*
G01X27362500D01*
X27344300Y21990100D01*
Y21985900D01*
G37*
G36*
G01X24445600Y21787900D02*
X24295300Y21637600D01*
Y21631000D01*
X24296800Y21629600D01*
G02X24218700Y21631000I-39772J-39589D01*
G01Y21669400D01*
X24391400Y21842100D01*
Y21844200D01*
G02X24447700Y21787900I56100J-200D01*
G01X24445600D01*
G37*
G36*
G01X27993100Y21443300D02*
X29321100Y22771300D01*
X29359500D01*
G02X29360900Y22693200I40989J-38328D01*
G01X29359500Y22694700D01*
X29352900D01*
X28049900Y21391700D01*
G03X28057100Y21374300I7197J-7212D01*
G01X28495600D01*
X29448100Y22326800D01*
X29638600D01*
X29765600Y22453800D01*
X29773000D01*
X29777600Y22458400D01*
X29808500D01*
G02X29812400Y22378000I40995J-38306D01*
G01X29808800Y22381200D01*
X29804800Y22377200D01*
X29797400D01*
X29670400Y22250200D01*
X29479900D01*
X28956300Y21726600D01*
G03X28962300Y21709200I7166J-7263D01*
G02X28994300Y21612500I-6306J-55731D01*
G01Y21377000D01*
G02X28917700I-38300J-41000D01*
G01Y21612500D01*
G02X28900300Y21647200I38339J40937D01*
G03X28882900Y21653200I-10137J-1166D01*
G01X28527400Y21297700D01*
X23599500D01*
G02Y21374300I-41000J38300D01*
G01X23617000D01*
G03X23626700Y21387700I-10J10218D01*
G02X23721000Y21443300I53352J17280D01*
G01X27993100D01*
G37*
G36*
G01X29511600Y20421800D02*
X29806700Y20716900D01*
Y21473000D01*
G03X29789300Y21480200I-10188J3D01*
G01X29565800Y21256700D01*
Y20939100D01*
X29479900Y20853200D01*
X28203500D01*
X28155700Y20901000D01*
Y20914000D01*
X28154200Y20915400D01*
G02X28248600Y20942300I39752J39586D01*
G03X28258600Y20929800I9951J-2289D01*
G01X29448100D01*
X29489200Y20970900D01*
Y21288500D01*
X29941300Y21740600D01*
Y21874700D01*
X30075400D01*
X30250200Y22049500D01*
X30182600Y22117100D01*
Y22205900D01*
X30197900Y22221200D01*
Y22314600D01*
X30257800Y22374500D01*
Y22431300D01*
G02X30337100Y22510600I38300J41000D01*
G01X30894400D01*
X31214000Y22830100D01*
X31213000Y22833100D01*
G02X31271100Y22775000I87000J28900D01*
G01X31268100Y22776000D01*
X30926200Y22434000D01*
X30337100D01*
G02X30334400Y22431300I-41000J38300D01*
G01Y22342700D01*
X30274500Y22282800D01*
Y22227600D01*
G03X30285400Y22217500I10180J55D01*
G02X30329100Y22201300I4100J-55982D01*
G01X30330500Y22199800D01*
X30337100D01*
X30400600Y22263300D01*
X30796400D01*
G03X30806400Y22275800I49J10211D01*
G02X30821200Y22328100I54624J12786D01*
G01X30822700Y22329500D01*
Y22342500D01*
X30870500Y22390300D01*
X31423000D01*
X31470800Y22342500D01*
Y21917000D01*
X31423000Y21869200D01*
X31251500D01*
X31203700Y21917000D01*
Y21994800D01*
X31080400Y22118100D01*
X30643200D01*
X30640200Y22115100D01*
Y21420500D01*
X30690800Y21369900D01*
Y21302100D01*
X30640900Y21252200D01*
X30573100D01*
X30553100Y21272200D01*
G03X30535700Y21266200I-7263J-7166D01*
G02X30423900Y21272300I-55716J6426D01*
G01Y21274400D01*
X30146600Y21551700D01*
X30076500D01*
G02X29980800Y21577700I-40975J38304D01*
G03X29963600Y21582600I-9944J-2269D01*
G01X29883300Y21502300D01*
Y20685100D01*
X29543400Y20345200D01*
X25765100D01*
X25719400Y20390900D01*
X25717300D01*
G02X25773600Y20447200I200J56100D01*
G01Y20445100D01*
X25796900Y20421800D01*
X29511600D01*
G37*
G54D20*
X26984000Y23610000D03*
X26324000D03*
X27654000Y22100000D03*
G54D18*
X23550000Y22992500D03*
X24770000Y20130000D03*
Y20892000D03*
X25700000Y21784000D03*
X26900000D03*
X28900000Y22984000D03*
G54D19*
X25700000Y22546000D03*
X26900000Y22038000D03*
Y22546000D03*
X28900000Y23238000D03*
Y23746000D03*
Y23492000D03*
G54D17*
X31500500Y20637500D03*
Y20267500D03*
X30475500D03*
Y20637500D03*
%LPD*%
G75*
G54D10*
X23680000Y21405000D03*
X23558500Y21336000D03*
X23939500Y23114000D03*
X23685500Y22796500D03*
X24257000Y21590000D03*
X24080100Y22338400D03*
X24511000Y22098000D03*
X24447500Y21844000D03*
X24130000Y22923500D03*
X24892000Y22435700D03*
X25463500Y22860000D03*
X25717500Y20447000D03*
X25908000Y22098000D03*
X25844500Y23177500D03*
X27368500Y21907500D03*
X28194000Y20955000D03*
X28956000Y21336000D03*
Y21653500D03*
X30099000Y21717000D03*
X30035500Y21590000D03*
X29849500Y22420100D03*
X30099000Y22034500D03*
X29400500Y22733000D03*
Y22542500D03*
X30861000Y20955000D03*
X30480000Y21272500D03*
X30289500Y22161500D03*
X30296100Y22472300D03*
X30861000Y22288500D03*
X30670500Y21971000D03*
G54D11*
X23550000Y22992500D03*
X24770000Y20130000D03*
Y20892000D03*
X26324000Y23610000D03*
X26984000D03*
X27654000Y22100000D03*
X31300000D03*
Y22862000D03*
G54D12*
X23550000Y23310000D03*
X26070000Y23610000D03*
X26730000D03*
X27400000Y22100000D03*
G54D13*
X25700000Y22292000D03*
Y22038000D03*
Y21784000D03*
Y22546000D03*
X26900000Y22292000D03*
Y22038000D03*
Y21784000D03*
Y22546000D03*
X28900000Y23238000D03*
Y22984000D03*
Y23746000D03*
Y23492000D03*
G54D14*
X25700000Y22800000D03*
X26900000D03*
X28900000Y24000000D03*
G54D15*
X30475500Y20637500D03*
Y20267500D03*
X31500500D03*
Y20637500D03*
G54D16*
G01X29400500Y22733000D02*
X29337000D01*
X28009000Y21405000D01*
X23680000D01*
G01X29849500Y22420100D02*
X29793500D01*
X29788900Y22415500D01*
X29781500D01*
X29654500Y22288500D01*
X29464000D01*
X28511500Y21336000D01*
X23558500D01*
G01X25908000Y22098000D02*
X25830900Y22175100D01*
X25651600D01*
X25638900Y22187800D01*
X25500700D01*
X24638000Y23050500D01*
X24003000D01*
X23939500Y23114000D01*
G01X23685500Y22796500D02*
Y22860000D01*
X23749000Y22923500D01*
X24130000D01*
G01X24257000Y21590000D02*
Y21653500D01*
X24447500Y21844000D01*
G01X24080100Y22338400D02*
Y22873600D01*
X24130000Y22923500D01*
G01X24080100Y22338400D02*
X24143700D01*
X24511100Y21971000D01*
X25513000D01*
G01X24892000Y22435700D02*
X24554300Y22098000D01*
X24511000D01*
G01X25463500Y22860000D02*
Y22528500D01*
X25700000Y22292000D01*
G01X25717500Y20447000D02*
X25781000Y20383500D01*
X29527500D01*
X29845000Y20701000D01*
Y21518200D01*
X30030400Y21703600D01*
Y21785600D01*
X30112400D01*
X30354000Y22027200D01*
Y22035500D01*
X30392600Y22074100D01*
Y22121900D01*
X30353000Y22161500D01*
G01X25957500Y21526500D02*
X25700000Y21784000D01*
G01X26642500Y21526500D02*
X25957500D01*
G01X25700000Y22038000D02*
X25848000D01*
X25908000Y22098000D01*
G01X25513000Y21971000D02*
X25700000Y21784000D01*
G01Y21687200D02*
Y21784000D01*
G01D02*
Y21880800D01*
G01X25603200Y21784000D02*
X25700000D01*
G01D02*
X25796800D01*
G01X25844500Y23177500D02*
X27152600D01*
X27178000Y23152100D01*
Y22570000D01*
X26900000Y22292000D01*
G01X26730000Y23610000D02*
X26606500Y23486500D01*
Y23456900D01*
X26581100Y23431500D01*
X26248500D01*
X26070000Y23610000D01*
G01X26239900D02*
X26324000D01*
G01X26900000Y21784000D02*
X26642500Y21526500D01*
G01X27435600Y21784000D02*
X26900000D01*
G01Y21687200D02*
Y21784000D01*
G01D02*
Y21880800D01*
G01X26803200Y21784000D02*
X26900000D01*
G01X26984000Y23610000D02*
X26845000Y23749000D01*
G01D02*
X26463000D01*
G01D02*
X26324000Y23610000D01*
G01Y23525900D02*
Y23610000D01*
G01D02*
Y23694100D01*
G01Y23610000D02*
X26408100D01*
G01X26984000Y23525900D02*
Y23610000D01*
G01D02*
Y23694100D01*
G01X26899900Y23610000D02*
X26984000D01*
G01D02*
X27068100D01*
G01X27400000Y22100000D02*
X27306000Y22006000D01*
Y21970000D01*
X27368500Y21907500D01*
G01X27654000Y22100000D02*
Y22002400D01*
G01D02*
X27435600Y21784000D01*
G01X27654000Y22100000D02*
Y22184100D01*
G01X27569900Y22100000D02*
X27654000D01*
G01D02*
X27738100D01*
G01X28194000Y20955000D02*
Y20916900D01*
X28219400Y20891500D01*
X29464000D01*
X29527500Y20955000D01*
Y21272600D01*
X29979600Y21724700D01*
Y21836400D01*
X30091300D01*
X30303200Y22048300D01*
Y22084300D01*
X30294600Y22092900D01*
X30261000D01*
X30220900Y22133000D01*
Y22190000D01*
X30236200Y22205300D01*
Y22298700D01*
X30296100Y22358600D01*
Y22472300D01*
G01X28956000Y21336000D02*
Y21653500D01*
G01X28900000Y22887200D02*
Y22984000D01*
G01D02*
Y23080800D01*
G01X28803200Y22984000D02*
X28900000D01*
G01D02*
X28996800D01*
G01X30035500Y21590000D02*
X30162500D01*
X30480000Y21272500D01*
G01X30099000Y22034500D02*
X29972000Y22161500D01*
Y22517100D01*
X29946600Y22542500D01*
X29400500D01*
G01X30861000Y22288500D02*
Y22326600D01*
X30886400Y22352000D01*
X31407100D01*
X31432500Y22326600D01*
Y21932900D01*
X31407100Y21907500D01*
X31267400D01*
X31242000Y21932900D01*
Y22010700D01*
X31096300Y22156400D01*
X30627300D01*
X30601900Y22131000D01*
Y21404600D01*
X30652500Y21354000D01*
Y21318000D01*
X30625000Y21290500D01*
X30589000D01*
X30162500Y21717000D01*
X30099000D01*
G01X30861000Y20955000D02*
X30670500Y21145500D01*
Y21264100D01*
X30703300Y21296900D01*
Y21375100D01*
X30670500Y21407900D01*
Y21971000D01*
G01X30289500Y22161500D02*
X30353000D01*
G01X31300000Y22100000D02*
X31175000Y22225000D01*
X30894600D01*
X30889500Y22219900D01*
X30832500D01*
X30827400Y22225000D01*
X30416500D01*
X30353000Y22161500D01*
G01X30296100Y22472300D02*
X30910300D01*
X31300000Y22862000D01*
M02*
