G04 ================== begin FILE IDENTIFICATION RECORD ==================*
G04 Layout Name:  C:/Users/user/Desktop/work/¶äºÎ±â/allegro/AVRUSB5.brd*
G04 Film Name:    Design*
G04 File Format:  Gerber RS274X*
G04 File Origin:  Cadence Allegro 17.2-P019*
G04 Origin Date:  Mon Jul 29 16:41:36 2019*
G04 *
G04 Layer:  VIA CLASS/BOTTOM*
G04 Layer:  VIA CLASS/TOP*
G04 Layer:  ROUTE KEEPOUT/ALL*
G04 Layer:  ROUTE KEEPIN/ALL*
G04 Layer:  REF DES/SILKSCREEN_TOP*
G04 Layer:  REF DES/SILKSCREEN_BOTTOM*
G04 Layer:  PIN/BOTTOM*
G04 Layer:  PIN/TOP*
G04 Layer:  PACKAGE KEEPIN/ALL*
G04 Layer:  PACKAGE GEOMETRY/PIN_NUMBER*
G04 Layer:  PACKAGE GEOMETRY/SILKSCREEN_TOP*
G04 Layer:  PACKAGE GEOMETRY/SILKSCREEN_BOTTOM*
G04 Layer:  PACKAGE GEOMETRY/SOLDERMASK_TOP*
G04 Layer:  PACKAGE GEOMETRY/SOLDERMASK_BOTTOM*
G04 Layer:  PACKAGE GEOMETRY/PASTEMASK_TOP*
G04 Layer:  PACKAGE GEOMETRY/PASTEMASK_BOTTOM*
G04 Layer:  ETCH/BOTTOM*
G04 Layer:  ETCH/TOP*
G04 Layer:  BOARD GEOMETRY/OUTLINE*
G04 Layer:  BOARD GEOMETRY/SILKSCREEN_TOP*
G04 Layer:  BOARD GEOMETRY/SILKSCREEN_BOTTOM*
G04 Layer:  BOARD GEOMETRY/SOLDERMASK_TOP*
G04 Layer:  BOARD GEOMETRY/SOLDERMASK_BOTTOM*
G04 Layer:  BOARD GEOMETRY/DESIGN_OUTLINE*
G04 *
G04 Offset:    (0.000 0.000)*
G04 Mirror:    No*
G04 Mode:      Positive*
G04 Rotation:  0*
G04 FullContactRelief:  No*
G04 UndefLineWidth:     0.000*
G04 ================== end FILE IDENTIFICATION RECORD ====================*
%FSLAX25Y25*MOMM*%
%IR0*IPPOS*OFA0.00000B0.00000*MIA0B0*SFA1.00000B1.00000*%
%ADD23R,.4X1.72*%
%ADD16C,1.321*%
%ADD17R,1.321X1.321*%
%ADD18C,1.575*%
%ADD20R,1.575X1.575*%
%ADD12O,.457X1.778*%
%ADD14O,1.778X.457*%
%ADD11R,.457X1.778*%
%ADD15R,1.778X.457*%
%ADD22O,1.2X1.9*%
%ADD21R,1.1X1.72*%
%ADD13C,.61*%
%ADD10R,1.499X2.845*%
%ADD19R,2.845X1.499*%
%ADD24C,.203*%
%ADD25C,.152*%
%ADD26C,.254*%
%ADD29C,1.122*%
%ADD28C,1.58*%
%ADD31R,2.012X.766*%
%ADD30C,1.834*%
%ADD27C,2.088*%
%ADD32O,1.712X2.412*%
G75*
%LPD*%
G75*
G36*
G01X23000100Y19800100D02*
Y24199900D01*
X32399900D01*
Y19800100D01*
X23000100D01*
G37*
%LPC*%
G75*
G36*
G01X28978800Y23895600D02*
X28821200D01*
G02X28795600Y23921200I50J25650D01*
G01Y24078800D01*
G02X28821200Y24104400I25650J-50D01*
G01X28978800D01*
G02X29004400Y24078800I-50J-25650D01*
G01Y23921200D01*
G02X28978800Y23895600I-25650J50D01*
G37*
G36*
G01X26796100Y23518400D02*
X26663900D01*
G02X26638400Y23543900I50J25550D01*
G01Y23676100D01*
G02X26663900Y23701600I25550J-50D01*
G01X26796100D01*
G02X26821600Y23676100I-50J-25550D01*
G01Y23543900D01*
G02X26796100Y23518400I-25550J50D01*
G37*
G36*
G01X26228300Y23505900D02*
Y23397500D01*
X26107500Y23518400D01*
X26003900D01*
G02X25978400Y23543900I50J25550D01*
G01Y23676100D01*
G02X26003900Y23701600I25550J-50D01*
G01X26136100D01*
G02X26161600Y23676100I-50J-25550D01*
G01Y23572500D01*
X26228300Y23505900D01*
G37*
G36*
G01X28938500Y23395000D02*
G02X29001800Y23469000I-38507J97013D01*
G03X29001700Y23468300I10040J-1791D01*
G02X28940500Y23395800I-101666J23740D01*
G01X28938500Y23395000D01*
G37*
G36*
G01X23616100Y23218400D02*
X23483900D01*
G02X23458400Y23243900I50J25550D01*
G01Y23376100D01*
G02X23483900Y23401600I25550J-50D01*
G01X23616100D01*
G02X23641600Y23376100I-50J-25550D01*
G01Y23243900D01*
G02X23616100Y23218400I-25550J50D01*
G37*
G36*
G01X26353500Y23139200D02*
X26026500D01*
G02X26047800Y23150600I21301J-14200D01*
G01X26151700D01*
Y23215800D01*
X26228300D01*
Y23150600D01*
X26332200D01*
G02X26353500Y23139200I-1J-25600D01*
G37*
G36*
G01X28938500Y23141000D02*
G02X28803000Y23276500I-38500J97000D01*
G01X28803800Y23278500D01*
G02X28859500Y23334200I96200J-40500D01*
G01X28861500Y23335000D01*
G02X28970400Y23315100I38537J-97030D01*
G02X28940500Y23141800I-70402J-77083D01*
G01X28938500Y23141000D01*
G37*
G36*
G01X27216300Y23075700D02*
X27139700D01*
Y23136200D01*
X27136700Y23139200D01*
X26392700D01*
X26405800Y23152300D01*
X27216300D01*
Y23075700D01*
G37*
G36*
G01X24699900Y23042800D02*
X24720000Y23022700D01*
G02X24699900Y23042800I5000J25100D01*
G37*
G36*
G01X24082400Y23012200D02*
X23987100D01*
X23941400Y23057900D01*
X23939300D01*
G02X23903300Y23156900I180J56111D01*
G02X23977800Y23073000I36168J-42911D01*
G01Y23040600D01*
G03X23995200Y23033400I10188J-3D01*
G01X24050600Y23088800D01*
X24159000D01*
X24082400Y23012200D01*
G37*
G36*
G01X23534300Y23082800D02*
G02X23511700Y22909200I15733J-90319D01*
G02X23534300Y23082800I38394J83273D01*
G37*
G36*
G01X31213000Y22833100D02*
G02X31271100Y22775000I87000J28900D01*
G01X31269000Y22775700D01*
G02X31213700Y22831000I31000J86300D01*
G01X31213000Y22833100D01*
G37*
G36*
G01X24887800Y22812200D02*
Y22746500D01*
X24809100Y22825200D01*
X24875000D01*
G02X24887800Y22812200I-100J-12900D01*
G37*
G36*
G01X26978800Y22695600D02*
X26821200D01*
G02X26795600Y22721200I50J25650D01*
G01Y22878800D01*
G02X26821200Y22904400I25650J-50D01*
G01X26978800D01*
G02X27004400Y22878800I-50J-25650D01*
G01Y22721200D01*
G02X26978800Y22695600I-25650J50D01*
G37*
G36*
G01X25778800D02*
X25621200D01*
G02X25595600Y22721200I50J25650D01*
G01Y22878800D01*
G02X25621200Y22904400I25650J-50D01*
G01X25778800D01*
G02X25804400Y22878800I-50J-25650D01*
G01Y22721200D01*
G02X25778800Y22695600I-25650J50D01*
G37*
G36*
G01X29402400Y22676900D02*
X29400300D01*
G02X29359700Y22694400I120J56124D01*
G01X29359500Y22694700D01*
G02X29351700Y22760700I40992J38305D01*
G03X29351400Y22771300I-8870J5053D01*
G01X29359500D01*
G02X29402400Y22676900I40991J-38320D01*
G37*
G36*
G01X29311800Y22653600D02*
X29235200Y22577000D01*
Y22685400D01*
X29311800Y22762000D01*
Y22653600D01*
G37*
G36*
G01X29161800Y22551200D02*
X29101000D01*
X29187400Y22637600D01*
Y22576800D01*
G02X29161800Y22551200I-25600J0D01*
G37*
G36*
G01X29401300Y22486400D02*
X29400300D01*
G02X29456600Y22542700I200J56100D01*
G01Y22540600D01*
X29474100Y22523100D01*
X29579700D01*
G03X29588300Y22538800I-1J10206D01*
G02X29583400Y22580800I40856J26052D01*
G01X29883300D01*
Y22504200D01*
X29441500D01*
G02X29401300Y22486400I-41000J38300D01*
G37*
G36*
G01X26803000Y22507500D02*
G02X26861500Y22449000I97000J38500D01*
G01X26859500Y22449800D01*
G02X26803800Y22505500I40500J96200D01*
G01X26803000Y22507500D01*
G37*
G36*
G01X25767600Y22625500D02*
G02X25659500Y22642200I-67623J-79510D01*
G01X25661500Y22643000D01*
G02X25767600Y22625500I38490J-97023D01*
G37*
G36*
G01X30634200Y22434000D02*
X30455400D01*
G03X30451300Y22444900I-9899J2498D01*
G02X30437800Y22510600I27471J39882D01*
G01X30651800D01*
G02X30638300Y22444900I-40971J-25818D01*
G03X30634200Y22434000I5799J-8402D01*
G37*
G36*
G01X30258500Y22380500D02*
G03X30257800Y22379700I7303J-7096D01*
G01Y22431300D01*
G02X30240000Y22471500I38300J41000D01*
G01Y22472500D01*
G02X30296300Y22416200I56100J-200D01*
G01X30294200D01*
X30258500Y22380500D01*
G37*
G36*
G01X24892200Y22379600D02*
X24891800D01*
G02X24835900Y22435500I200J56100D01*
G01Y22435900D01*
G02X24891800Y22491800I56100J-200D01*
G01X24892200D01*
G02X24948100Y22435900I-200J-56100D01*
G01Y22435500D01*
G02X24892200Y22379600I-56100J200D01*
G37*
G36*
G01X29939200Y22286500D02*
X29933700Y22281000D01*
Y22443100D01*
X30010300D01*
Y22286500D01*
X29939200D01*
G37*
G36*
G01X25413100Y22329600D02*
X25358900Y22275400D01*
X25123600Y22510700D01*
X25128800Y22515900D01*
X25127700Y22518900D01*
G02X25126200Y22527800I24086J8636D01*
G01Y22591100D01*
G03X25108700Y22598300I-10229J6D01*
G01X25072400Y22561900D01*
X25018200Y22616100D01*
X25072400Y22670300D01*
X25413100Y22329600D01*
G37*
G36*
G01X29670400Y22250200D02*
X29593800D01*
G02X29603300Y22269500I35345J-5410D01*
G03X29601700Y22284900I-7409J7013D01*
G02X29580800Y22326800I27483J39871D01*
G01X29638600D01*
X29765600Y22453800D01*
X29773000D01*
X29777600Y22458400D01*
X29808500D01*
G02X29812400Y22378000I40995J-38306D01*
G01X29808800Y22381200D01*
X29804800Y22377200D01*
X29797400D01*
X29670400Y22250200D01*
G37*
G36*
G01X30274500Y22282800D02*
Y22249300D01*
X30237300Y22286500D01*
X30197900D01*
Y22314600D01*
X30255600Y22372300D01*
G03X30265700Y22363100I10127J974D01*
G01X30269100D01*
X30312000Y22320200D01*
X30274500Y22282800D01*
G37*
G36*
G01X30820000Y22326800D02*
G02Y22250200I41000J-38300D01*
G01X30743000D01*
X30729900Y22263300D01*
X30796400D01*
G03X30806400Y22275800I49J10211D01*
G02X30820000Y22326800I54621J12748D01*
G37*
G36*
G01X28983800Y22325600D02*
X28851600Y22193400D01*
Y22300000D01*
G02X28851700Y22301900I25632J-396D01*
G01X28875300Y22325500D01*
G02X28877200Y22325600I2296J-25532D01*
G01X28983800D01*
G37*
G36*
G01X24831200Y22320700D02*
X24699400Y22188900D01*
Y22272200D01*
G02X24725000Y22297800I25600J0D01*
G01X24733400D01*
G03X24737000Y22306600I15J5130D01*
G01X24722900Y22320700D01*
X24777000Y22374900D01*
X24831200Y22320700D01*
G37*
G36*
G01X26940500Y22388200D02*
G02X26827100Y22217300I-40466J-96222D01*
G02X26938500Y22389000I73000J74626D01*
G01X26940500Y22388200D01*
G37*
G36*
G01X30345600Y22161300D02*
G02X30289300Y22217600I-56100J200D01*
G01X30291400D01*
G02X30329100Y22201300I-1879J-56094D01*
G01X30330500Y22199800D01*
X30337100D01*
X30373300Y22236000D01*
Y22191100D01*
X30345600Y22163400D01*
Y22161300D01*
G37*
G36*
G01X24552000Y22059700D02*
G02X24541500Y22145100I-40996J38305D01*
G01X24545000Y22142800D01*
X24627900Y22225800D01*
X24676300Y22177400D01*
Y22165800D01*
X24570200Y22059700D01*
X24552000D01*
G37*
G36*
G01X27466100Y22008400D02*
X27333900D01*
G02X27308400Y22033900I50J25550D01*
G01Y22166100D01*
G02X27333900Y22191600I25550J-50D01*
G01X27466100D01*
G02X27491600Y22166100I-50J-25550D01*
G01Y22033900D01*
G02X27466100Y22008400I-25550J50D01*
G37*
G36*
G01X25906100Y22041900D02*
X25869700Y22005500D01*
Y22057000D01*
G02X25907200Y22154100I38300J41000D01*
G01X25908200D01*
G02Y22041900I-200J-56100D01*
G01X25906100D01*
G37*
G36*
G01X30099200Y22090600D02*
G02X30042900Y22034300I-200J-56100D01*
G01Y22034700D01*
G02X30098800Y22090600I56100J-200D01*
G01X30099200D01*
G37*
G36*
G01X30610900Y21969000D02*
X30478700D01*
G02X30448700Y22024200I38J35773D01*
G03X30444700Y22038900I-8519J5576D01*
G02X30430300Y22062000I11209J23026D01*
G01Y22107600D01*
G02X30439900Y22127600I25591J20D01*
G03X30440700Y22134800I-3177J3997D01*
G02X30443300Y22197800I38052J29983D01*
G03Y22211800I-7439J7000D01*
G02X30434000Y22263300I35453J32992D01*
G01X30655600D01*
G02X30646300Y22211800I-44760J-18507D01*
G03Y22197800I7439J-7000D01*
G02X30648900Y22134800I-35452J-33017D01*
G03X30649700Y22127600I3977J-3203D01*
G02X30657100Y22118100I-15933J-20043D01*
G01X30643200D01*
X30640200Y22115100D01*
Y22034100D01*
G03Y22025500I9223J-4300D01*
G01Y21984300D01*
G02X30610900Y21969000I-29336J20473D01*
G37*
G36*
G01X25754000Y22127300D02*
G02X25646000I-54000J-89300D01*
G01X25648400Y22128800D01*
Y22136800D01*
X25635700D01*
X25546400Y22226100D01*
X25599900D01*
G03X25608800Y22241300I-16J10215D01*
G02X25603000Y22330500I91216J50720D01*
G01X25604200Y22333600D01*
X25544800Y22393000D01*
Y22403500D01*
X25534300D01*
X25425200Y22512600D01*
Y22658000D01*
X25501800D01*
Y22544400D01*
X25658400Y22387800D01*
X25661500Y22389000D01*
G02X25783800Y22229700I38510J-97031D01*
G03X25791900Y22213400I8155J-6110D01*
G01X25840900D01*
X25764300Y22136800D01*
X25751600D01*
Y22128800D01*
X25754000Y22127300D01*
G37*
G36*
G01X26861500Y22135000D02*
G02X26803000Y22076500I38500J-97000D01*
G01X26803800Y22078500D01*
G02X26859500Y22134200I96200J-40500D01*
G01X26861500Y22135000D01*
G37*
G36*
G01X27368700Y21963600D02*
G02X27312400Y21907300I-200J-56100D01*
G01Y21908300D01*
G02X27367700Y21963600I56100J-800D01*
G01X27368700D01*
G37*
G36*
G01X29432800Y22203100D02*
X28957300Y21727600D01*
Y21785200D01*
X29010400Y21838300D01*
X29026200D01*
Y21904900D01*
X29089100Y21967800D01*
X29173100D01*
X29408300Y22203100D01*
X29432800D01*
G37*
G36*
G01X28775000Y21644800D02*
X28766100D01*
X28787800Y21666500D01*
Y21657800D01*
G02X28775000Y21644800I-12900J-100D01*
G37*
G36*
G01X29009300Y21636100D02*
G02X28917200Y21613000I-53322J17444D01*
G02X28900300Y21647200I38830J40463D01*
G03X28900100Y21648300I-10120J-1272D01*
G02X28950700Y21709400I55877J5228D01*
G01X28952600Y21709600D01*
X28955600Y21712800D01*
G03X28962300Y21709200I7836J6548D01*
G02X29009300Y21636100I-6319J-55722D01*
G37*
G36*
G01X24257200Y21533900D02*
X24256200D01*
G02X24203200Y21606000I807J56123D01*
G02X24265600Y21645400I53761J-16031D01*
G03X24274400Y21662700I1600J10074D01*
G01X24243200Y21693900D01*
X24391400Y21842100D01*
Y21844200D01*
G02X24447700Y21787900I56100J-200D01*
G01X24445600D01*
X24295300Y21637600D01*
Y21631000D01*
X24296800Y21629600D01*
G02X24312300Y21599800I-39758J-39610D01*
G03X24312400Y21598600I10187J245D01*
G02X24257200Y21533900I-55423J-8612D01*
G37*
G36*
G01X28153000Y21494800D02*
X28098800Y21440600D01*
X28044600Y21494800D01*
X28098800Y21549000D01*
X28153000Y21494800D01*
G37*
G36*
G01X28697500Y21467800D02*
X28599400Y21369700D01*
Y21442200D01*
G02X28625000Y21467800I25600J0D01*
G01X28697500D01*
G37*
G36*
G01X30358400Y21613400D02*
Y21339900D01*
X30146600Y21551700D01*
X30076500D01*
G02X29980800Y21577700I-40975J38304D01*
G03X29963600Y21582600I-9944J-2269D01*
G01X29928600Y21547600D01*
Y21634400D01*
X29933700Y21639500D01*
Y21670100D01*
X29961700Y21698100D01*
Y21744500D01*
G03X29946000Y21753100I-10206J-1D01*
G02X29941300Y21750400I-26474J40644D01*
G01Y21874700D01*
X30075400D01*
X30173300Y21972600D01*
G02X30193000Y21961500I-13265J-46574D01*
G03X30207000I7000J7439D01*
G02X30273100Y21961400I32996J-35459D01*
G03X30287000I6950J7492D01*
G02X30353100Y21961500I33104J-35359D01*
G03X30367100I7000J7439D01*
G02X30448600Y21926100I33039J-35452D01*
G01Y21898300D01*
X30470300D01*
X30486300Y21882300D01*
X30640200D01*
Y21805700D01*
X30448600D01*
Y21793900D01*
G02X30367800Y21757900I-48451J70D01*
G01X30367000Y21758600D01*
X30365100Y21759300D01*
G03X30358400Y21754400I-1591J-4855D01*
G01Y21746400D01*
X30476500Y21628300D01*
X30597500D01*
X30640200Y21585600D01*
Y21442100D01*
X30568700Y21513600D01*
Y21548700D01*
X30565700Y21551700D01*
X30444700D01*
X30375800Y21620600D01*
G03X30358400Y21613400I-7212J-7197D01*
G37*
G36*
G01X28350000Y21297700D02*
X28241600D01*
X28165000Y21374300D01*
X28273400D01*
X28350000Y21297700D01*
G37*
G36*
G01X25593200D02*
X25484800D01*
X25361100Y21421400D01*
X25293800D01*
X25272000Y21443300D01*
X25447600D01*
X25593200Y21297700D01*
G37*
G36*
G01X24747800D02*
X24639400D01*
X24493800Y21443300D01*
X24602200D01*
X24747800Y21297700D01*
G37*
G36*
G01X24018900D02*
X23938400D01*
Y21325600D01*
X24056100Y21443300D01*
X24164500D01*
X24018900Y21297700D01*
G37*
G36*
G01X28956200Y21279900D02*
X28955200D01*
G02X28917700Y21377000I800J56100D01*
G02X28956200Y21279900I38296J-40998D01*
G37*
G36*
G01X23611700Y21318200D02*
G02X23505700Y21316900I-53226J17796D01*
G02X23599500Y21374300I52763J19119D01*
G01X23617000D01*
G03X23626700Y21387700I-10J10218D01*
G02X23721000Y21443300I53352J17280D01*
G02X23653300Y21355600I-40956J-38364D01*
G03X23638300Y21346700I-4821J-8965D01*
G01Y21345500D01*
X23612100Y21319300D01*
X23611700Y21318200D01*
G37*
G36*
G01X29758800Y21449700D02*
X29585400Y21276300D01*
Y21384700D01*
X29655900Y21455200D01*
X29748300D01*
G02X29758800Y21449700I-87J-12938D01*
G37*
G36*
G01X30535700Y21266200D02*
G02X30423900Y21272300I-55716J6426D01*
G01Y21274400D01*
X30372800Y21325500D01*
Y21442300D01*
G02X30398300Y21467800I25550J-50D01*
G01X30548300D01*
G02X30573800Y21442300I-50J-25550D01*
G01Y21252200D01*
X30573100D01*
X30553100Y21272200D01*
G03X30535700Y21266200I-7263J-7166D01*
G37*
G36*
G01X28248400Y20941400D02*
G02X28153000Y20916700I-54420J13606D01*
G01X28152900D01*
G02X28153000Y20993300I41049J38246D01*
G02X28172100Y21006700I41077J-38238D01*
G02X28248600Y20942300I21844J-51688D01*
G03X28248400Y20941400I9868J-2665D01*
G37*
G36*
G01X29479900Y20853200D02*
X29026200D01*
Y20929800D01*
X29448100D01*
X29489200Y20970900D01*
Y21092100D01*
X29565800Y21015500D01*
Y20939100D01*
X29479900Y20853200D01*
G37*
G36*
G01X29883300Y20967900D02*
Y20700600D01*
X29880300Y20703600D01*
Y20721500D01*
X29840100Y20761700D01*
X29806700D01*
Y20967900D01*
X29883300D01*
G37*
G36*
G01X25755800Y20358000D02*
G03X25756900Y20353400I10187J5D01*
G01X25719400Y20390900D01*
X25717300D01*
G02X25773600Y20447200I200J56100D01*
G01Y20446200D01*
G02X25755800Y20406000I-56100J800D01*
G01Y20358000D01*
G37*
G36*
G01X25876000Y20345200D02*
X25765100D01*
X25761400Y20348900D01*
G03X25773200Y20350800I4588J9097D01*
G01X25844200Y20421800D01*
X25952600D01*
X25876000Y20345200D01*
G37*
G36*
G01X24860500Y20115400D02*
G02X24686700Y20168300I-90523J14547D01*
G02X24860600Y20116000I83282J-38347D01*
G03X24860500Y20115400I10015J-1977D01*
G37*
G54D29*
X25844500Y23177500D03*
X25463500Y22860000D03*
G54D28*
X26984000Y23610000D03*
X26324000D03*
X27654000Y22100000D03*
G54D31*
X28700000Y20891500D03*
G54D30*
X28900000Y22984000D03*
X31300000Y22100000D03*
X26900000Y21784000D03*
X25700000D03*
X24770000Y20892000D03*
G54D27*
X28900000Y23746000D03*
G54D32*
X31500500Y20637500D03*
X30475500D03*
X31500500Y20267500D03*
X30475500D03*
%LPD*%
G75*
G54D10*
X23550000Y21030000D03*
X23976700D03*
X23490000Y20400000D03*
X23916700D03*
X23400000Y23890000D03*
X23826700D03*
X24790000Y21620000D03*
X25216700D03*
X24800000Y22130000D03*
X25226700D03*
X24800000Y23190000D03*
X25226700D03*
X24800000Y22670000D03*
X25226700D03*
X27290000Y20950000D03*
X27716700D03*
X27800000Y23400000D03*
X28226700D03*
X28700000Y20800000D03*
X29126700D03*
X28700000Y21300000D03*
X29126700D03*
X28700000Y21800000D03*
X29126700D03*
X29300000Y23100000D03*
X30100000Y21300000D03*
X29673300D03*
X29726700Y23100000D03*
X30000000Y23900000D03*
X30473300Y21300000D03*
X30426700Y23900000D03*
X30900000Y21300000D03*
G54D11*
X23520000Y21670000D03*
X23840000Y22519600D03*
X29840000Y21860000D03*
X30160000Y22709600D03*
G54D20*
X25700000Y22800000D03*
D03*
X26900000D03*
D03*
X28900000Y24000000D03*
D03*
G54D21*
X30758000Y20267500D03*
X31218000D03*
G54D12*
X23600000Y21670000D03*
X23680000D03*
X23760000D03*
X23840000D03*
X23920000D03*
Y22519600D03*
X23760000D03*
X23680000D03*
X23600000D03*
X23520000D03*
X24000100Y21670000D03*
X24080100D03*
Y22519600D03*
X24000100D03*
X29920000Y21860000D03*
X30000000D03*
Y22709600D03*
X29920000D03*
X29840000D03*
X30080000Y21860000D03*
X30160000D03*
X30240000D03*
X30320100D03*
X30400100D03*
Y22709600D03*
X30320100D03*
X30240000D03*
X30080000D03*
G54D13*
X23680000Y21405000D03*
D03*
X23558500Y21336000D03*
D03*
X23939500Y23114000D03*
D03*
X23685500Y22796500D03*
D03*
X24257000Y21590000D03*
D03*
X24080100Y22338400D03*
D03*
X24511000Y22098000D03*
D03*
X24447500Y21844000D03*
D03*
X24130000Y22923500D03*
D03*
X24892000Y22435700D03*
D03*
X25463500Y22860000D03*
D03*
X25717500Y20447000D03*
D03*
X25908000Y22098000D03*
D03*
X25844500Y23177500D03*
D03*
X27368500Y21907500D03*
D03*
X28194000Y20955000D03*
D03*
X28956000Y21336000D03*
D03*
Y21653500D03*
D03*
X30099000Y21717000D03*
D03*
X30035500Y21590000D03*
D03*
X29849500Y22420100D03*
D03*
X30099000Y22034500D03*
D03*
X29400500Y22733000D03*
D03*
Y22542500D03*
D03*
X30861000Y20955000D03*
D03*
X30480000Y21272500D03*
D03*
X30289500Y22161500D03*
D03*
X30296100Y22472300D03*
D03*
X30861000Y22288500D03*
D03*
X30670500Y21971000D03*
D03*
G54D22*
X30475500Y20637500D03*
D03*
Y20267500D03*
D03*
X31500500D03*
D03*
Y20637500D03*
D03*
G54D14*
X23375200Y22374800D03*
Y22294800D03*
Y22214800D03*
Y22134800D03*
Y22054800D03*
Y21894800D03*
Y21814800D03*
X24224800D03*
Y21974800D03*
Y22054800D03*
Y22134800D03*
Y22214800D03*
Y22294800D03*
Y22374800D03*
X29695200Y22404800D03*
Y22324800D03*
Y22244800D03*
Y22084800D03*
Y22004800D03*
Y22564800D03*
Y22484800D03*
X30544800Y22004800D03*
Y22164800D03*
Y22244800D03*
Y22324800D03*
Y22404800D03*
Y22484800D03*
Y22564800D03*
G54D23*
X31053000Y20267500D03*
X31118000D03*
X30858000D03*
X30923000D03*
X30988000D03*
G54D24*
G01X23550000Y23468800D02*
G02X23867500Y23151200I0J-317500D01*
G02X23550000Y22833800I-317500J100D01*
G02X23232500Y23151200I0J317500D01*
G02X23550000Y23468800I317500J100D01*
G01X25024000Y19939500D02*
X24516000D01*
G01D02*
Y21082500D01*
G01D02*
X25024000D01*
G01D02*
Y19939500D01*
G01X25573000Y21644300D02*
Y21784000D01*
G01X25827000Y22939700D02*
Y21644300D01*
G01D02*
X25573000D01*
G01Y21784000D02*
Y22038000D01*
G01D02*
Y22292000D01*
G01D02*
Y22546000D01*
G01D02*
Y22800000D01*
G01D02*
Y22939700D01*
G01D02*
X25827000D01*
G01X25911200Y23610000D02*
G02X26197000Y23895800I285800J0D01*
G02X26482800Y23610000I0J-285800D01*
G02X26197000Y23324200I-285800J0D01*
G02X25911200Y23610000I0J285800D01*
G01X26773000Y21644300D02*
Y21784000D01*
G01X27027000Y21644300D02*
X26773000D01*
G01Y21784000D02*
Y22038000D01*
G01D02*
Y22292000D01*
G01D02*
Y22546000D01*
G01D02*
Y22800000D01*
G01D02*
Y22939700D01*
G01D02*
X27027000D01*
G01X26571200Y23610000D02*
G02X26857000Y23895800I285800J0D01*
G02X27142800Y23610000I0J-285800D01*
G02X26857000Y23324200I-285800J0D01*
G02X26571200Y23610000I0J285800D01*
G01X27027000Y22939700D02*
Y21644300D01*
G01X27241200Y22100000D02*
G02X27527000Y22385800I285800J0D01*
G02X27812800Y22100000I0J-285800D01*
G02X27527000Y21814200I-285800J0D01*
G02X27241200Y22100000I0J285800D01*
G01X28773000Y22844300D02*
Y22984000D01*
G01D02*
Y23238000D01*
G01X29027000Y24139700D02*
Y22844300D01*
G01D02*
X28773000D01*
G01Y23238000D02*
Y23492000D01*
G01D02*
Y23746000D01*
G01D02*
Y24000000D01*
G01D02*
Y24139700D01*
G01D02*
X29027000D01*
G01X31554000Y23052500D02*
Y21909500D01*
G01D02*
X31046000D01*
G01D02*
Y23052500D01*
G01D02*
X31554000D01*
G54D15*
X23375200Y21974800D03*
X24224800Y21894800D03*
X29695200Y22164800D03*
X30544800Y22084800D03*
G54D25*
G01X23415400Y20826800D02*
Y21233200D01*
G01X24111300Y20826800D02*
X23415400D01*
G01X23355400Y20196800D02*
Y20603200D01*
G01D02*
X24051300D01*
G01Y20196800D02*
X23355400D01*
G01X23415400Y21233200D02*
X24111300D01*
G01X23265400Y23686800D02*
Y24093200D01*
G01X23961300D02*
Y23686800D01*
G01D02*
X23265400D01*
G01Y24093200D02*
X23961300D01*
G01X24111300Y21233200D02*
Y20826800D01*
G01X24051300Y20603200D02*
Y20196800D01*
G01X24655400Y21416800D02*
Y21823200D01*
G01X25351300Y21416800D02*
X24655400D01*
G01Y21823200D02*
X25351300D01*
G01X24665400Y21926800D02*
Y22333200D01*
G01D02*
X25361300D01*
G01Y21926800D02*
X24665400D01*
G01Y22986800D02*
Y23393200D01*
G01X25361300Y22986800D02*
X24665400D01*
G01Y22466800D02*
Y22873200D01*
G01D02*
X25361300D01*
G01Y22466800D02*
X24665400D01*
G01Y23393200D02*
X25361300D01*
G01X25351300Y21823200D02*
Y21416800D01*
G01X25361300Y22333200D02*
Y21926800D01*
G01Y23393200D02*
Y22986800D01*
G01Y22873200D02*
Y22466800D01*
G01X26413200Y21615400D02*
X26006800D01*
G01D02*
Y22311300D01*
G01D02*
X26413200D01*
G01X25986800Y23184600D02*
X26393200D01*
G01Y22488700D02*
X25986800D01*
G01D02*
Y23184600D01*
G01X26413200Y22311300D02*
Y21615400D01*
G01X26393200Y23184600D02*
Y22488700D01*
G01X27155400Y20746800D02*
Y21153200D01*
G01X27851300Y20746800D02*
X27155400D01*
G01Y21153200D02*
X27851300D01*
G01X27665400Y23196800D02*
Y23603200D01*
G01X28361300Y23196800D02*
X27665400D01*
G01Y23603200D02*
X28361300D01*
G01X27851300Y21153200D02*
Y20746800D01*
G01X28361300Y23603200D02*
Y23196800D01*
G01X28565400Y20596800D02*
Y21003200D01*
G01X29261300D02*
Y20596800D01*
G01D02*
X28565400D01*
G01Y21003200D02*
X29261300D01*
G01X28565400Y21096800D02*
Y21503200D01*
G01D02*
X29261300D01*
G01D02*
Y21096800D01*
G01D02*
X28565400D01*
G01Y21596800D02*
Y22003200D01*
G01X29261300D02*
Y21596800D01*
G01D02*
X28565400D01*
G01X29222700Y22090400D02*
X28816300D01*
G01D02*
Y22786300D01*
G01X29222700D02*
Y22090400D01*
G01X28565400Y22003200D02*
X29261300D01*
G01X28816300Y22786300D02*
X29222700D01*
G01X29165400Y22896800D02*
Y23303200D01*
G01X29861300Y22896800D02*
X29165400D01*
G01Y23303200D02*
X29861300D01*
G01X29603200Y23438700D02*
X29196800D01*
G01D02*
Y24134600D01*
G01D02*
X29603200D01*
G01X30302200Y20248900D02*
X29895800D01*
G01D02*
Y20944800D01*
G01D02*
X30302200D01*
G01X30234600Y21096800D02*
X29538700D01*
G01D02*
Y21503200D01*
G01D02*
X30234600D01*
G01X29861300Y23303200D02*
Y22896800D01*
G01X29865400Y23696800D02*
Y24103200D01*
G01X30561300Y23696800D02*
X29865400D01*
G01X29603200Y24134600D02*
Y23438700D01*
G01X29865400Y24103200D02*
X30561300D01*
G01X30302200Y20944800D02*
Y20248900D01*
G01X31034600Y21096800D02*
X30338700D01*
G01D02*
Y21503200D01*
G01D02*
X31034600D01*
G01X30234600D02*
Y21096800D01*
G01X30561300Y24103200D02*
Y23696800D01*
G01X31034600Y21503200D02*
Y21096800D01*
G01X31703200Y21065400D02*
X31296800D01*
G01D02*
Y21761300D01*
G01D02*
X31703200D01*
G01D02*
Y21065400D01*
G54D16*
X23550000Y22992500D03*
D03*
X24770000Y20130000D03*
D03*
Y20892000D03*
D03*
X26324000Y23610000D03*
D03*
X26984000D03*
D03*
X27654000Y22100000D03*
D03*
X31300000D03*
D03*
Y22862000D03*
D03*
G54D26*
G01X25216700Y21620000D02*
Y21552700D01*
X25309700Y21459700D01*
X25377000D01*
X26098500Y20738200D01*
Y20621900D01*
X25415600Y19939000D01*
X23368000D01*
X23188500Y20118500D01*
Y21272500D01*
X23520000Y21604000D01*
Y21670000D01*
G01X25717500Y20447000D02*
Y20320000D01*
X25463500Y20066000D01*
X24853300D01*
X24813100Y20025800D01*
X24726900D01*
X24686700Y20066000D01*
X24183400D01*
X23916700Y20332700D01*
Y20400000D01*
G01X23550000Y21030000D02*
Y20627700D01*
G01X23490000Y20567700D02*
Y20400000D01*
G01X23550000Y20627700D02*
X23490000Y20567700D01*
G01Y20239700D02*
Y20400000D01*
G01X23397000D02*
X23490000D01*
G01D02*
X23583000D01*
G01X23976700Y21030000D02*
Y20862300D01*
X23939500Y20825100D01*
Y20764500D01*
X24574000Y20130000D01*
X24770000D01*
G01X23450700Y21602700D02*
Y21745400D01*
G01X23680000Y21670000D02*
Y21405000D01*
G01X29400500Y22733000D02*
X29337000D01*
X28009000Y21405000D01*
X23680000D01*
G01X23600000Y21670000D02*
Y21361400D01*
X23574600Y21336000D01*
X23558500D01*
G01X29849500Y22420100D02*
X29793500D01*
X29788900Y22415500D01*
X29781500D01*
X29654500Y22288500D01*
X29464000D01*
X28511500Y21336000D01*
X23558500D01*
G01X23643000Y21190300D02*
X23550000Y21097300D01*
Y21030000D01*
G01X24080100Y21526500D02*
X24066500D01*
Y21525800D01*
X24045800D01*
X23710300Y21190300D01*
X23643000D01*
G01X23457000Y21030000D02*
X23550000D01*
G01D02*
X23643000D01*
G01X24000100Y21670000D02*
Y21742200D01*
X23749000Y21993300D01*
Y22314300D01*
X23840000Y22405300D01*
Y22519600D01*
G01X23939500Y23114000D02*
Y22894700D01*
X23920000Y22875200D01*
Y22519600D01*
G01X25908000Y22098000D02*
X25830900Y22175100D01*
X25651600D01*
X25638900Y22187800D01*
X25500700D01*
X24638000Y23050500D01*
X24003000D01*
X23939500Y23114000D01*
G01X23840000Y22519600D02*
Y23709000D01*
X23826700Y23722300D01*
Y23890000D01*
G01X23685500Y22796500D02*
Y22860000D01*
X23749000Y22923500D01*
X24130000D01*
G01X23680000Y22519600D02*
Y22697400D01*
G01D02*
X23685500Y22702900D01*
Y22796500D01*
G01X23600000Y22519600D02*
Y22850900D01*
X23550000Y22900900D01*
Y22992500D01*
G01X23826700Y23890000D02*
X25790000D01*
X26070000Y23610000D01*
G01X23550000Y23310000D02*
Y23672700D01*
X23400000Y23822700D01*
Y23890000D01*
G01X24080100Y21670000D02*
Y21526500D01*
G01Y21670000D02*
Y21776900D01*
G01Y21670000D02*
X24121000D01*
G01X24274300Y21717000D02*
X24770000Y21221300D01*
Y20892000D01*
G01X23976700Y21030000D02*
Y21309700D01*
X24257000Y21590000D01*
G01D02*
Y21653500D01*
X24447500Y21844000D01*
G01X24080100Y22519600D02*
X24533900D01*
X24574500Y22479000D01*
X24618700D01*
X24800000Y22297700D01*
Y22130000D01*
G01X24080100Y22338400D02*
Y22873600D01*
X24130000Y22923500D01*
G01X24080100Y22338400D02*
X24143700D01*
X24511100Y21971000D01*
X25513000D01*
G01X24892000Y22435700D02*
X24554300Y22098000D01*
X24511000D01*
G01X24224800Y21814800D02*
Y21766500D01*
X24274300Y21717000D01*
G01X24511000Y22098000D02*
X24574500Y22034500D01*
Y21845500D01*
X24446000Y21717000D01*
X24274300D01*
G01X24447500Y21844000D02*
X24396700Y21894800D01*
X24224800D01*
G01X24790000Y21620000D02*
Y21687300D01*
X24638000Y21839300D01*
Y22161500D01*
X24424700Y22374800D01*
X24224800D01*
G01X24000100Y22519600D02*
Y22875200D01*
X24003000Y22878100D01*
Y22987000D01*
X24206000Y23190000D01*
X24800000D01*
G01Y22670000D02*
X24383500D01*
G01D02*
X24130000Y22923500D01*
G01X25700000Y22800000D02*
X25882600Y22617400D01*
Y22581300D01*
X25816900Y22515600D01*
Y22497600D01*
X25748400Y22429100D01*
X25651600D01*
X25583100Y22497600D01*
Y22515600D01*
X25556200Y22542500D01*
X25463500D01*
X25231400Y22310400D01*
X25136000D01*
X25113600Y22288000D01*
Y21972000D01*
X25126300Y21959300D01*
Y21878100D01*
X25216700Y21787700D01*
Y21620000D01*
G01X24800000Y22130000D02*
X24939900D01*
X25062800Y22252900D01*
Y22309100D01*
X25088200Y22334500D01*
Y22421100D01*
X25156700Y22489600D01*
X25317400D01*
X25339800Y22512000D01*
Y22594300D01*
X25365200Y22619700D01*
X25626300D01*
X25700000Y22546000D01*
G01X25226700Y22670000D02*
X25126300D01*
X24892000Y22435700D01*
G01X25226700Y22130000D02*
Y22197300D01*
X25471200Y22441800D01*
X25567000D01*
X25583100Y22425700D01*
Y22243600D01*
X25651600Y22175100D01*
X25748400D01*
X25816900Y22243600D01*
Y22340400D01*
X25800100Y22357200D01*
Y22378300D01*
X25825500Y22403700D01*
X26757700D01*
X26900000Y22546000D01*
G01X25463500Y22860000D02*
Y22528500D01*
X25700000Y22292000D01*
G01X25463500Y22860000D02*
X25209500D01*
X25126300Y22943200D01*
Y23019300D01*
X25113600Y23032000D01*
Y23101100D01*
X25024700Y23190000D01*
X24800000D01*
G01Y22509700D02*
Y22670000D01*
G01D02*
Y22830300D01*
G01Y22670000D02*
X24893000D01*
G01X25844500Y23177500D02*
X25339600D01*
X25327100Y23190000D01*
X25226700D01*
G01X25717500Y20447000D02*
X25781000Y20383500D01*
X29527500D01*
X29845000Y20701000D01*
Y21518200D01*
X30030400Y21703600D01*
Y21785600D01*
X30112400D01*
X30354000Y22027200D01*
Y22035500D01*
X30392600Y22074100D01*
Y22121900D01*
X30353000Y22161500D01*
G01X25957500Y21526500D02*
X25700000Y21784000D01*
G01X26642500Y21526500D02*
X25957500D01*
G01X25908000Y22098000D02*
Y21984700D01*
X26142700Y21750000D01*
X26210000D01*
G01X25700000Y22038000D02*
X25848000D01*
X25908000Y22098000D01*
G01X25513000Y21971000D02*
X25700000Y21784000D01*
G01Y21687200D02*
Y21784000D01*
G01D02*
Y21880800D01*
G01X25603200Y21784000D02*
X25700000D01*
G01D02*
X25796800D01*
G01X25700000Y21687200D02*
Y21784000D01*
G01D02*
Y21880800D01*
G01X25603200Y21784000D02*
X25700000D01*
G01D02*
X25796800D01*
G01X26210000Y22176700D02*
X26761300D01*
X26900000Y22038000D01*
G01X26190000Y23050000D02*
Y23490000D01*
X26070000Y23610000D01*
G01X26190000Y23050000D02*
X26357700D01*
X26421700Y23114000D01*
X27305000D01*
X27400000Y23019000D01*
Y22100000D01*
G01X26900000Y22800000D02*
X26434000D01*
X26257300Y22623300D01*
X26190000D01*
G01X25700000Y22800000D02*
X25796800Y22896800D01*
X26061700D01*
X26190000Y22768500D01*
Y22623300D01*
G01X25844500Y23177500D02*
X27152600D01*
X27178000Y23152100D01*
Y22570000D01*
X26900000Y22292000D01*
G01X26730000Y23610000D02*
X26606500Y23486500D01*
Y23456900D01*
X26581100Y23431500D01*
X26248500D01*
X26070000Y23610000D01*
G01X26239900D02*
X26324000D01*
G01X26239900D02*
X26324000D01*
G01X26900000Y21784000D02*
X26642500Y21526500D01*
G01X26900000Y21784000D02*
X27290000Y21394000D01*
G01X27435600Y21784000D02*
X26900000D01*
G01Y21687200D02*
Y21784000D01*
G01D02*
Y21880800D01*
G01X26803200Y21784000D02*
X26900000D01*
G01Y21687200D02*
Y21784000D01*
G01D02*
Y21880800D01*
G01X26803200Y21784000D02*
X26900000D01*
G01D02*
X26996800D01*
G01X26984000Y23610000D02*
X26845000Y23749000D01*
G01D02*
X26463000D01*
G01D02*
X26324000Y23610000D01*
G01Y23525900D02*
Y23610000D01*
G01D02*
Y23694100D01*
G01Y23610000D02*
X26408100D01*
G01X26984000Y23525900D02*
Y23610000D01*
G01D02*
Y23694100D01*
G01X26899900Y23610000D02*
X26984000D01*
G01D02*
X27068100D01*
G01X26984000D02*
X27194000Y23400000D01*
G01X26324000Y23525900D02*
Y23610000D01*
G01D02*
Y23694100D01*
G01Y23610000D02*
X26408100D01*
G01X26984000Y23525900D02*
Y23610000D01*
G01D02*
Y23694100D01*
G01X26899900Y23610000D02*
X26984000D01*
G01D02*
X27068100D01*
G01X27290000Y20789700D02*
Y20950000D01*
G01X28194000Y20955000D02*
X27822100D01*
X27817100Y20950000D01*
X27716700D01*
G01X27290000Y21394000D02*
Y20950000D01*
G01X27197000D02*
X27290000D01*
G01D02*
X27383000D01*
G01X29126700Y21232700D02*
X28976000Y21082000D01*
X28511500D01*
X27686000Y21907500D01*
X27368500D01*
G01X27400000Y22100000D02*
X27306000Y22006000D01*
Y21970000D01*
X27368500Y21907500D01*
G01X27654000Y22100000D02*
Y22002400D01*
G01D02*
X27435600Y21784000D01*
G01X27654000Y22100000D02*
Y22184100D01*
G01X27569900Y22100000D02*
X27654000D01*
G01D02*
X27738100D01*
G01X27800000Y22246000D02*
X27654000Y22100000D01*
G01X27719500Y22034500D02*
X27654000Y22100000D01*
G01X28365000Y21800000D02*
X28130500Y22034500D01*
X27719500D01*
G01X27654000Y22015900D02*
Y22100000D01*
G01D02*
Y22184100D01*
G01X27569900Y22100000D02*
X27654000D01*
G01D02*
X27738100D01*
G01X27194000Y23400000D02*
X27800000D01*
G01X28194000Y20955000D02*
Y20916900D01*
X28219400Y20891500D01*
X29464000D01*
X29527500Y20955000D01*
Y21272600D01*
X29979600Y21724700D01*
Y21836400D01*
X30091300D01*
X30303200Y22048300D01*
Y22084300D01*
X30294600Y22092900D01*
X30261000D01*
X30220900Y22133000D01*
Y22190000D01*
X30236200Y22205300D01*
Y22298700D01*
X30296100Y22358600D01*
Y22472300D01*
G01X27800000Y23400000D02*
Y22246000D01*
G01X28700000Y21800000D02*
X28365000D01*
G01X27800000Y23400000D02*
Y23560300D01*
G01Y23400000D02*
X27893000D01*
G01X28226700D02*
X28738000D01*
X28900000Y23238000D01*
G01X29126700Y20800000D02*
Y21232700D01*
G01X30571500Y20800000D02*
X30342000D01*
X30279400Y20737400D01*
Y20719500D01*
X30257000Y20697100D01*
X30239100D01*
X30179500Y20637500D01*
X30018500D01*
X29958900Y20697100D01*
X29941000D01*
X29918600Y20719500D01*
Y20737400D01*
X29856000Y20800000D01*
X29328700D01*
X29239800Y20711100D01*
Y20642000D01*
X29217400Y20619600D01*
X29199500D01*
X29144700Y20564800D01*
X29108700D01*
X29053900Y20619600D01*
X29036000D01*
X29013600Y20642000D01*
Y20711100D01*
X28924700Y20800000D01*
X28700000D01*
G01Y21300000D02*
X28920000D01*
X28956000Y21336000D01*
G01D02*
Y21653500D01*
G01D02*
X28995600Y21693100D01*
Y21769300D01*
X29026300Y21800000D01*
X29126700D01*
G01Y21232700D02*
Y21300000D01*
G01D02*
X29227100D01*
X29527500Y20999600D01*
Y20955000D01*
X29552900Y20929600D01*
X29946600D01*
X29972000Y20955000D01*
Y21556400D01*
X29966900Y21561500D01*
Y21618500D01*
X29972000Y21623600D01*
Y21654200D01*
X30000000Y21682200D01*
Y21860000D01*
G01X28700000Y21632300D02*
Y21800000D01*
G01X29568200Y22030100D02*
Y21884600D01*
X29334500Y21650900D01*
X29256700D01*
Y21581600D01*
X29201600Y21526500D01*
X28805800D01*
X28700000Y21632300D01*
G01X29695200Y22164800D02*
X29424200D01*
X29126700Y21867300D01*
Y21800000D01*
G01X28700000Y22784000D02*
Y21800000D01*
G01X30080000Y22709600D02*
Y22823900D01*
X30043900Y22860000D01*
X29337000D01*
X29273500Y22796500D01*
Y22411700D01*
X29086800Y22225000D01*
X29019500D01*
G01X28900000Y22887200D02*
Y22984000D01*
G01D02*
Y23080800D01*
G01X28803200Y22984000D02*
X28900000D01*
G01D02*
X28996800D01*
G01X28900000D02*
X28700000Y22784000D01*
G01X28900000Y22887200D02*
Y22984000D01*
G01D02*
Y23080800D01*
G01X28803200Y22984000D02*
X28900000D01*
G01X29300000Y23100000D02*
X29473500D01*
X29613600Y22959900D01*
Y22942000D01*
X29636000Y22919600D01*
X29817400D01*
X29830100Y22932300D01*
X29980800D01*
X30017500Y22969000D01*
X30053500D01*
X30160000Y22862500D01*
Y22709600D01*
G01X29019500Y22651700D02*
Y23118500D01*
X28900000Y23238000D01*
G01Y23746000D02*
X29160000D01*
X29332700Y23573300D01*
X29400000D01*
G01X28900000Y23492000D02*
X28973700Y23418300D01*
X29301800D01*
X29620100Y23100000D01*
X29726700D01*
G01X30426700Y23900000D02*
X30326300D01*
X30096300Y24130000D01*
X29030000D01*
X28900000Y24000000D01*
G01X29673300Y21139700D02*
Y21300000D01*
G01D02*
Y21460300D01*
G01X29580300Y21300000D02*
X29673300D01*
G01D02*
X29766300D01*
G01X30035500Y21590000D02*
X30162500D01*
X30480000Y21272500D01*
G01X30035500Y21590000D02*
X30093900Y21648400D01*
X30167600D01*
Y21785600D01*
X30160000D01*
Y21860000D01*
G01X29770700Y21792700D02*
Y21935400D01*
G01X29849500Y22420100D02*
Y22476100D01*
X29845000Y22480600D01*
Y22590300D01*
X29840000Y22595300D01*
Y22709600D01*
G01X30289500Y22161500D02*
X30335000Y22207000D01*
Y22243000D01*
X30253200Y22324800D01*
X29923300D01*
X29894600Y22296100D01*
X29795400D01*
X29766700Y22324800D01*
X29695200D01*
G01X30296100Y22472300D02*
X30228600Y22404800D01*
X29931400D01*
X29876700Y22350100D01*
X29822200D01*
X29786500Y22385800D01*
X29777600D01*
X29758600Y22404800D01*
X29695200D01*
G01X30000000Y21860000D02*
X30080000D01*
G01X30099000Y22034500D02*
X29972000Y22161500D01*
Y22517100D01*
X29946600Y22542500D01*
X29400500D01*
G01X30000000Y21860000D02*
Y21926000D01*
X30034300Y21960300D01*
Y21969800D01*
X30099000Y22034500D01*
G01X29673300Y21848600D02*
Y21862800D01*
G01X29802100Y22084800D02*
X29831800D01*
X29845000Y22098000D01*
X29908500D01*
X30035500Y22225000D01*
X30015700Y22244800D01*
X29802100D01*
G01X29695200Y22084800D02*
X29676200Y22065800D01*
X29603900D01*
X29568200Y22030100D01*
G01X29588300Y22084800D02*
X29695200D01*
G01D02*
X29802100D01*
G01X29588300Y22244800D02*
X29695200D01*
G01D02*
X29802100D01*
G01X29400500Y22733000D02*
X29462000Y22671500D01*
X29636800D01*
X29695200Y22613100D01*
Y22564800D01*
G01X29400500Y22542500D02*
X29458200Y22484800D01*
X29695200D01*
G01X30240000Y22709600D02*
Y23065200D01*
X30226000Y23079200D01*
Y23241000D01*
X30035500Y23431500D01*
Y23558500D01*
X29594000Y24000000D01*
X29400000D01*
G01X30320100Y22709600D02*
Y23598600D01*
X30289500Y23629200D01*
Y23812500D01*
X30202000Y23900000D01*
X30000000D01*
G01X30099000Y20383500D02*
Y20092900D01*
X30124400Y20067500D01*
X31027600D01*
X31053000Y20092900D01*
Y20267500D01*
G01X30320100Y21730500D02*
Y20964000D01*
X30166300Y20810200D01*
X30099000D01*
G01X30988000Y20267500D02*
Y20447000D01*
X30973900Y20461100D01*
Y20469500D01*
X30670500Y20772900D01*
Y20955000D01*
X30797500Y21082000D01*
X31314700D01*
X31432700Y21200000D01*
X31500000D01*
G01X30923000Y20384900D02*
X30571500Y20736400D01*
Y20800000D01*
G01X30861000Y22288500D02*
Y22326600D01*
X30886400Y22352000D01*
X31407100D01*
X31432500Y22326600D01*
Y21932900D01*
X31407100Y21907500D01*
X31267400D01*
X31242000Y21932900D01*
Y22010700D01*
X31096300Y22156400D01*
X30627300D01*
X30601900Y22131000D01*
Y21404600D01*
X30652500Y21354000D01*
Y21318000D01*
X30625000Y21290500D01*
X30589000D01*
X30162500Y21717000D01*
X30099000D01*
G01X30861000Y20955000D02*
X30670500Y21145500D01*
Y21264100D01*
X30703300Y21296900D01*
Y21375100D01*
X30670500Y21407900D01*
Y21971000D01*
G01X30900000Y21300000D02*
Y21303800D01*
X30807000Y21396800D01*
X30739700D01*
X30607000Y21529500D01*
Y21564600D01*
X30581600Y21590000D01*
X30460600D01*
X30320100Y21730500D01*
G01X30240000Y21860000D02*
Y21507300D01*
X30100000Y21367300D01*
Y21300000D01*
G01X30289500Y22161500D02*
X30353000D01*
G01X31300000Y22100000D02*
X31175000Y22225000D01*
X30894600D01*
X30889500Y22219900D01*
X30832500D01*
X30827400Y22225000D01*
X30416500D01*
X30353000Y22161500D01*
G01X30080000Y21860000D02*
Y21717000D01*
X30099000D01*
G01X30861000Y22288500D02*
X30758900D01*
X30722600Y22324800D01*
X30544800D01*
G01Y22004800D02*
X30636700D01*
X30670500Y21971000D01*
G01X30478800Y22404800D02*
X30544800D01*
G01D02*
X30900400D01*
G01D02*
X30911100Y22415500D01*
X30924500D01*
X30988000Y22352000D01*
Y22034500D01*
X30924500Y21971000D01*
X30670500D01*
G01X30544800Y21963900D02*
Y22004800D01*
G01X30437900D02*
X30544800D01*
G01X30320100Y21860000D02*
Y21730500D01*
G01X30400100Y21860000D02*
X30454400D01*
X30470400Y21844000D01*
X30797500D01*
X31014800Y21626700D01*
X31500000D01*
G01X30296100Y22472300D02*
X30910300D01*
X31300000Y22862000D01*
G01X30400100Y22495200D02*
Y22709600D01*
G01D02*
Y22816500D01*
G01Y22709600D02*
X30441000D01*
G01X31118000Y20267500D02*
Y20383500D01*
X31115000D01*
Y20510500D01*
X30861000Y20764500D01*
Y20955000D01*
G01X30923000Y20267500D02*
Y20384900D01*
G01X30900000Y21236500D02*
Y21300000D01*
G54D17*
X23550000Y23310000D03*
D03*
X26070000Y23610000D03*
D03*
X26730000D03*
D03*
X27400000Y22100000D03*
D03*
G54D18*
X25700000Y22292000D03*
D03*
Y22038000D03*
D03*
Y21784000D03*
D03*
Y22546000D03*
D03*
X26900000Y22292000D03*
D03*
Y22038000D03*
D03*
Y21784000D03*
D03*
Y22546000D03*
D03*
X28900000Y23238000D03*
D03*
Y22984000D03*
D03*
Y23746000D03*
D03*
Y23492000D03*
D03*
G54D19*
X26210000Y21750000D03*
Y22176700D03*
X26190000Y23050000D03*
Y22623300D03*
X29019500Y22225000D03*
Y22651700D03*
X29400000Y24000000D03*
Y23573300D03*
X30099000Y20383500D03*
Y20810200D03*
X31500000Y21200000D03*
Y21626700D03*
M02*
