G04 ================== begin FILE IDENTIFICATION RECORD ==================*
G04 Layout Name:  C:/Users/user/Desktop/work/¶äºÎ±â/allegro/AVRUSB5.brd*
G04 Film Name:    MetalT*
G04 File Format:  Gerber RS274X*
G04 File Origin:  Cadence Allegro 17.2-P019*
G04 Origin Date:  Mon Jul 29 16:41:36 2019*
G04 *
G04 Layer:  PIN/PASTEMASK_TOP*
G04 Layer:  PACKAGE GEOMETRY/PASTEMASK_TOP*
G04 *
G04 Offset:    (0.000 0.000)*
G04 Mirror:    No*
G04 Mode:      Positive*
G04 Rotation:  0*
G04 FullContactRelief:  No*
G04 UndefLineWidth:     0.000*
G04 ================== end FILE IDENTIFICATION RECORD ====================*
%FSLAX25Y25*MOMM*%
%IR0*IPPOS*OFA0.00000B0.00000*MIA0B0*SFA1.00000B1.00000*%
%ADD17R,.4X1.72*%
%ADD12O,.457X1.778*%
%ADD13O,1.778X.457*%
%ADD11R,.457X1.778*%
%ADD14R,1.778X.457*%
%ADD16R,1.1X1.72*%
%ADD10R,1.499X2.845*%
%ADD15R,2.845X1.499*%
%LPD*%
G75*
G54D10*
X23550000Y21030000D03*
X23976700D03*
X23490000Y20400000D03*
X23916700D03*
X23400000Y23890000D03*
X23826700D03*
X24790000Y21620000D03*
X25216700D03*
X24800000Y22130000D03*
X25226700D03*
X24800000Y23190000D03*
X25226700D03*
X24800000Y22670000D03*
X25226700D03*
X27290000Y20950000D03*
X27716700D03*
X27800000Y23400000D03*
X28226700D03*
X28700000Y20800000D03*
X29126700D03*
X28700000Y21300000D03*
X29126700D03*
X28700000Y21800000D03*
X29126700D03*
X29300000Y23100000D03*
X30100000Y21300000D03*
X29673300D03*
X29726700Y23100000D03*
X30000000Y23900000D03*
X30473300Y21300000D03*
X30426700Y23900000D03*
X30900000Y21300000D03*
G54D11*
X23520000Y21670000D03*
X23840000Y22519600D03*
X29840000Y21860000D03*
X30160000Y22709600D03*
G54D12*
X23600000Y21670000D03*
X23680000D03*
X23760000D03*
X23840000D03*
X23920000D03*
Y22519600D03*
X23760000D03*
X23680000D03*
X23600000D03*
X23520000D03*
X24000100Y21670000D03*
X24080100D03*
Y22519600D03*
X24000100D03*
X29920000Y21860000D03*
X30000000D03*
Y22709600D03*
X29920000D03*
X29840000D03*
X30080000Y21860000D03*
X30160000D03*
X30240000D03*
X30320100D03*
X30400100D03*
Y22709600D03*
X30320100D03*
X30240000D03*
X30080000D03*
G54D13*
X23375200Y22374800D03*
Y22294800D03*
Y22214800D03*
Y22134800D03*
Y22054800D03*
Y21894800D03*
Y21814800D03*
X24224800D03*
Y21974800D03*
Y22054800D03*
Y22134800D03*
Y22214800D03*
Y22294800D03*
Y22374800D03*
X29695200Y22404800D03*
Y22324800D03*
Y22244800D03*
Y22084800D03*
Y22004800D03*
Y22564800D03*
Y22484800D03*
X30544800Y22004800D03*
Y22164800D03*
Y22244800D03*
Y22324800D03*
Y22404800D03*
Y22484800D03*
Y22564800D03*
G54D14*
X23375200Y21974800D03*
X24224800Y21894800D03*
X29695200Y22164800D03*
X30544800Y22084800D03*
G54D15*
X26210000Y21750000D03*
Y22176700D03*
X26190000Y23050000D03*
Y22623300D03*
X29019500Y22225000D03*
Y22651700D03*
X29400000Y24000000D03*
Y23573300D03*
X30099000Y20383500D03*
Y20810200D03*
X31500000Y21200000D03*
Y21626700D03*
G54D16*
X30758000Y20267500D03*
X31218000D03*
G54D17*
X31053000D03*
X31118000D03*
X30858000D03*
X30923000D03*
X30988000D03*
M02*
