G04 ================== begin FILE IDENTIFICATION RECORD ==================*
G04 Layout Name:  C:/Users/user/Desktop/work/¶äºÎ±â/allegro/AVRUSB5.brd*
G04 Film Name:    SilkT*
G04 File Format:  Gerber RS274X*
G04 File Origin:  Cadence Allegro 17.2-P019*
G04 Origin Date:  Mon Jul 29 16:41:36 2019*
G04 *
G04 Layer:  REF DES/SILKSCREEN_TOP*
G04 Layer:  PACKAGE GEOMETRY/SILKSCREEN_TOP*
G04 Layer:  BOARD GEOMETRY/SILKSCREEN_TOP*
G04 *
G04 Offset:    (0.000 0.000)*
G04 Mirror:    No*
G04 Mode:      Positive*
G04 Rotation:  0*
G04 FullContactRelief:  No*
G04 UndefLineWidth:     0.200*
G04 ================== end FILE IDENTIFICATION RECORD ====================*
%FSLAX25Y25*MOMM*%
%IR0*IPPOS*OFA0.00000B0.00000*MIA0B0*SFA1.00000B1.00000*%
%ADD10C,.203*%
%ADD11C,.2*%
%ADD12C,.152*%
%ADD13C,.254*%
G75*
%LPD*%
G75*
G54D10*
G01X23550000Y23468800D02*
G02X23867500Y23151200I0J-317500D01*
G02X23550000Y22833800I-317500J100D01*
G02X23232500Y23151200I0J317500D01*
G02X23550000Y23468800I317500J100D01*
G01X25024000Y19939500D02*
X24516000D01*
G01D02*
Y21082500D01*
G01D02*
X25024000D01*
G01D02*
Y19939500D01*
G01X25573000Y21644300D02*
Y21784000D01*
G01X25827000Y22939700D02*
Y21644300D01*
G01D02*
X25573000D01*
G01Y21784000D02*
Y22038000D01*
G01D02*
Y22292000D01*
G01D02*
Y22546000D01*
G01D02*
Y22800000D01*
G01D02*
Y22939700D01*
G01D02*
X25827000D01*
G01X25911200Y23610000D02*
G02X26197000Y23895800I285800J0D01*
G02X26482800Y23610000I0J-285800D01*
G02X26197000Y23324200I-285800J0D01*
G02X25911200Y23610000I0J285800D01*
G01X26773000Y21644300D02*
Y21784000D01*
G01X27027000Y21644300D02*
X26773000D01*
G01Y21784000D02*
Y22038000D01*
G01D02*
Y22292000D01*
G01D02*
Y22546000D01*
G01D02*
Y22800000D01*
G01D02*
Y22939700D01*
G01D02*
X27027000D01*
G01X26571200Y23610000D02*
G02X26857000Y23895800I285800J0D01*
G02X27142800Y23610000I0J-285800D01*
G02X26857000Y23324200I-285800J0D01*
G02X26571200Y23610000I0J285800D01*
G01X27027000Y22939700D02*
Y21644300D01*
G01X27241200Y22100000D02*
G02X27527000Y22385800I285800J0D01*
G02X27812800Y22100000I0J-285800D01*
G02X27527000Y21814200I-285800J0D01*
G02X27241200Y22100000I0J285800D01*
G01X28773000Y22844300D02*
Y22984000D01*
G01D02*
Y23238000D01*
G01X29027000Y24139700D02*
Y22844300D01*
G01D02*
X28773000D01*
G01Y23238000D02*
Y23492000D01*
G01D02*
Y23746000D01*
G01D02*
Y24000000D01*
G01D02*
Y24139700D01*
G01D02*
X29027000D01*
G01X31554000Y23052500D02*
Y21909500D01*
G01D02*
X31046000D01*
G01D02*
Y23052500D01*
G01D02*
X31554000D01*
G54D11*
G01X23417100Y20089700D02*
X23409100Y20096100D01*
X23399800Y20100300D01*
X23389100D01*
X23377100Y20093900D01*
X23367800Y20083400D01*
X23361100Y20070700D01*
X23355800Y20049500D01*
X23354500Y20030400D01*
X23357100Y20011400D01*
X23361100Y19998700D01*
X23369100Y19986000D01*
X23378500Y19977500D01*
X23387800Y19973300D01*
X23397100D01*
X23406500Y19977500D01*
X23414500Y19983900D01*
X23421100Y19992300D01*
G01X23475500Y20079100D02*
X23483500Y20091800D01*
X23492800Y20098200D01*
X23503500Y20100300D01*
X23516800Y20096100D01*
X23526100Y20085500D01*
X23528800Y20072800D01*
X23527500Y20060100D01*
X23522100Y20049500D01*
X23495500Y20028300D01*
X23483500Y20013500D01*
X23475500Y19992300D01*
X23472800Y19973300D01*
X23528800D01*
G01X23500800Y20690400D02*
X23492800Y20696800D01*
X23483500Y20701000D01*
X23472800D01*
X23460800Y20694600D01*
X23451500Y20684100D01*
X23444800Y20671400D01*
X23439500Y20650200D01*
X23438200Y20631100D01*
X23440800Y20612100D01*
X23444800Y20599400D01*
X23452800Y20586700D01*
X23462200Y20578200D01*
X23471500Y20574000D01*
X23480800D01*
X23490200Y20578200D01*
X23498200Y20584600D01*
X23504800Y20593000D01*
G01X23584500Y20574000D02*
X23593800Y20576100D01*
X23604500Y20582500D01*
X23611200Y20593000D01*
X23613800Y20607900D01*
X23611200Y20622700D01*
X23603200Y20635400D01*
X23591200Y20641700D01*
X23577800D01*
X23569800Y20646000D01*
X23563200Y20656500D01*
X23560500Y20671400D01*
X23564500Y20686200D01*
X23573800Y20696800D01*
X23584500Y20701000D01*
X23595200Y20696800D01*
X23604500Y20686200D01*
X23608500Y20671400D01*
X23605800Y20656500D01*
X23599200Y20646000D01*
X23591200Y20641700D01*
X23577800D01*
X23565800Y20635400D01*
X23557800Y20622700D01*
X23555200Y20607900D01*
X23557800Y20593000D01*
X23564500Y20582500D01*
X23575200Y20576100D01*
X23584500Y20574000D01*
G01X23272200Y21454100D02*
X23304200D01*
G01X23288200D02*
Y21327100D01*
G01X23272200D02*
X23304200D01*
G01X23430500Y21443500D02*
X23422500Y21449900D01*
X23413200Y21454100D01*
X23402500D01*
X23390500Y21447700D01*
X23381200Y21437200D01*
X23374500Y21424500D01*
X23369200Y21403300D01*
X23367900Y21384200D01*
X23370500Y21365200D01*
X23374500Y21352500D01*
X23382500Y21339800D01*
X23391900Y21331300D01*
X23401200Y21327100D01*
X23410500D01*
X23419900Y21331300D01*
X23427900Y21337700D01*
X23434500Y21346100D01*
G01X23514200Y21327100D02*
Y21454100D01*
X23498200Y21428700D01*
G01Y21327100D02*
X23530200D01*
G01X24021000Y22394700D02*
Y22267700D01*
X24037000Y22293100D01*
G01Y22394700D02*
X24005000D01*
G01X23910700D02*
X23908000Y22367200D01*
X23904000Y22343900D01*
X23898700Y22322700D01*
X23892000Y22299500D01*
X23881300Y22267700D01*
X23934700D01*
G01X23550600Y21794700D02*
Y21921700D01*
X23534600Y21896300D01*
G01Y21794700D02*
X23566600D01*
G01X23442200Y22606000D02*
Y22733000D01*
X23468800D01*
X23479500Y22726600D01*
X23487500Y22718200D01*
X23494200Y22705500D01*
X23499500Y22690700D01*
X23500800Y22669500D01*
X23499500Y22648300D01*
X23494200Y22633500D01*
X23487500Y22620800D01*
X23479500Y22612300D01*
X23468800Y22606000D01*
X23442200D01*
G01X23584500D02*
Y22733000D01*
X23568500Y22707600D01*
G01Y22606000D02*
X23600500D01*
G01X23381300Y23431500D02*
Y23558500D01*
X23414700D01*
X23425300Y23552100D01*
X23432000Y23543700D01*
X23434700Y23526700D01*
X23432000Y23509800D01*
X23424000Y23499200D01*
X23414700Y23492900D01*
X23381300D01*
G01X23414700D02*
X23434700Y23431500D01*
G01X23521000D02*
Y23558500D01*
X23505000Y23533100D01*
G01Y23431500D02*
X23537000D01*
G01X23634000Y23558500D02*
X23623300Y23554300D01*
X23615300Y23543700D01*
X23610000Y23531000D01*
X23606000Y23514000D01*
X23604700Y23495000D01*
X23606000Y23475900D01*
X23610000Y23459000D01*
X23615300Y23446300D01*
X23623300Y23435700D01*
X23634000Y23431500D01*
X23644700Y23435700D01*
X23652700Y23446300D01*
X23658000Y23459000D01*
X23662000Y23475900D01*
X23663300Y23495000D01*
X23662000Y23514000D01*
X23658000Y23531000D01*
X23652700Y23543700D01*
X23644700Y23554300D01*
X23634000Y23558500D01*
G01X24678000Y19685000D02*
Y19742100D01*
X24651300Y19812000D01*
G01X24704700D02*
X24678000Y19742100D01*
G01X24791000Y19685000D02*
Y19812000D01*
X24775000Y19786600D01*
G01Y19685000D02*
X24807000D01*
G01X24661100Y21193300D02*
Y21320300D01*
X24694500D01*
X24705100Y21313900D01*
X24711800Y21305500D01*
X24714500Y21288500D01*
X24711800Y21271600D01*
X24703800Y21261000D01*
X24694500Y21254700D01*
X24661100D01*
G01X24694500D02*
X24714500Y21193300D01*
G01X24800800D02*
Y21320300D01*
X24784800Y21294900D01*
G01Y21193300D02*
X24816800D01*
G01X24884500Y21212300D02*
X24892500Y21201800D01*
X24901800Y21195400D01*
X24913800Y21193300D01*
X24925800Y21197500D01*
X24935100Y21206000D01*
X24941800Y21220800D01*
X24943100Y21237700D01*
X24940500Y21254700D01*
X24933800Y21265300D01*
X24924500Y21273700D01*
X24915100Y21275800D01*
X24905800Y21273700D01*
X24893800Y21265300D01*
X24897800Y21320300D01*
X24933800D01*
G01X24671100Y21703300D02*
Y21830300D01*
X24704500D01*
X24715100Y21823900D01*
X24721800Y21815500D01*
X24724500Y21798500D01*
X24721800Y21781600D01*
X24713800Y21771000D01*
X24704500Y21764700D01*
X24671100D01*
G01X24704500D02*
X24724500Y21703300D01*
G01X24810800D02*
Y21830300D01*
X24794800Y21804900D01*
G01Y21703300D02*
X24826800D01*
G01X24894500Y21728700D02*
X24902500Y21713900D01*
X24913100Y21705400D01*
X24925100Y21703300D01*
X24935800Y21705400D01*
X24946500Y21716000D01*
X24953100Y21728700D01*
X24954500Y21741400D01*
X24951800Y21756200D01*
X24942500Y21766800D01*
X24933100Y21771000D01*
X24921100D01*
G01X24933100D02*
X24941100Y21777400D01*
X24947800Y21788000D01*
X24950500Y21800700D01*
X24947800Y21813400D01*
X24941100Y21823900D01*
X24929100Y21830300D01*
X24917100Y21828200D01*
X24905100Y21819700D01*
G01X24727100Y22359700D02*
X24719100Y22366100D01*
X24709800Y22370300D01*
X24699100D01*
X24687100Y22363900D01*
X24677800Y22353400D01*
X24671100Y22340700D01*
X24665800Y22319500D01*
X24664500Y22300400D01*
X24667100Y22281400D01*
X24671100Y22268700D01*
X24679100Y22256000D01*
X24688500Y22247500D01*
X24697800Y22243300D01*
X24707100D01*
X24716500Y22247500D01*
X24724500Y22253900D01*
X24731100Y22262300D01*
G01X24808100Y22243300D02*
X24810800Y22270800D01*
X24814800Y22294100D01*
X24820100Y22315300D01*
X24826800Y22338500D01*
X24837500Y22370300D01*
X24784100D01*
G01X24671100Y22763300D02*
Y22890300D01*
X24704500D01*
X24715100Y22883900D01*
X24721800Y22875500D01*
X24724500Y22858500D01*
X24721800Y22841600D01*
X24713800Y22831000D01*
X24704500Y22824700D01*
X24671100D01*
G01X24704500D02*
X24724500Y22763300D01*
G01X24810800D02*
Y22890300D01*
X24794800Y22864900D01*
G01Y22763300D02*
X24826800D01*
G01X24898500Y22869100D02*
X24906500Y22881800D01*
X24915800Y22888200D01*
X24926500Y22890300D01*
X24939800Y22886100D01*
X24949100Y22875500D01*
X24951800Y22862800D01*
X24950500Y22850100D01*
X24945100Y22839500D01*
X24918500Y22818300D01*
X24906500Y22803500D01*
X24898500Y22782300D01*
X24895800Y22763300D01*
X24951800D01*
G01X25540300Y21424900D02*
X25547000Y21412200D01*
X25555000Y21403700D01*
X25564300Y21399500D01*
X25575000Y21403700D01*
X25583000Y21412200D01*
X25591000Y21424900D01*
X25593700Y21441800D01*
Y21526500D01*
G01X25696000Y21399500D02*
Y21526500D01*
X25646700Y21435500D01*
X25713300D01*
G01X25641300Y21554600D02*
X25630800Y21546600D01*
X25624400Y21537300D01*
X25622300Y21525300D01*
X25626500Y21513300D01*
X25635000Y21504000D01*
X25649800Y21497300D01*
X25666700Y21496000D01*
X25683700Y21498600D01*
X25694300Y21505300D01*
X25702700Y21514600D01*
X25704800Y21524000D01*
X25702700Y21533300D01*
X25694300Y21545300D01*
X25749300Y21541300D01*
Y21505300D01*
G01X25984800Y21336000D02*
Y21463000D01*
X26018200D01*
X26028800Y21456600D01*
X26035500Y21448200D01*
X26038200Y21431200D01*
X26035500Y21414300D01*
X26027500Y21403700D01*
X26018200Y21397400D01*
X25984800D01*
G01X26018200D02*
X26038200Y21336000D01*
G01X26124500D02*
Y21463000D01*
X26108500Y21437600D01*
G01Y21336000D02*
X26140500D01*
G01X26237500D02*
Y21463000D01*
X26221500Y21437600D01*
G01Y21336000D02*
X26253500D01*
G01X26048300Y22288500D02*
Y22415500D01*
X26081700D01*
X26092300Y22409100D01*
X26099000Y22400700D01*
X26101700Y22383700D01*
X26099000Y22366800D01*
X26091000Y22356200D01*
X26081700Y22349900D01*
X26048300D01*
G01X26081700D02*
X26101700Y22288500D01*
G01X26165300Y22303300D02*
X26174700Y22292700D01*
X26185300Y22288500D01*
X26196000Y22292700D01*
X26205300Y22305400D01*
X26212000Y22324500D01*
X26214700Y22343500D01*
Y22366800D01*
X26212000Y22385900D01*
X26205300Y22402800D01*
X26197300Y22411300D01*
X26188000Y22415500D01*
X26177300Y22411300D01*
X26169300Y22402800D01*
X26164000Y22390100D01*
X26161300Y22373200D01*
X26164000Y22358400D01*
X26170700Y22343500D01*
X26178700Y22335100D01*
X26188000Y22332900D01*
X26198700Y22337200D01*
X26206700Y22347800D01*
X26214700Y22366800D01*
G01X25622300Y23049300D02*
X25749300D01*
X25723900Y23065300D01*
G01X25622300D02*
Y23033300D01*
G01X26104300Y23230400D02*
X26096300Y23236800D01*
X26087000Y23241000D01*
X26076300D01*
X26064300Y23234600D01*
X26055000Y23224100D01*
X26048300Y23211400D01*
X26043000Y23190200D01*
X26041700Y23171100D01*
X26044300Y23152100D01*
X26048300Y23139400D01*
X26056300Y23126700D01*
X26065700Y23118200D01*
X26075000Y23114000D01*
X26084300D01*
X26093700Y23118200D01*
X26101700Y23124600D01*
X26108300Y23133000D01*
G01X26158700D02*
X26166700Y23122500D01*
X26176000Y23116100D01*
X26188000Y23114000D01*
X26200000Y23118200D01*
X26209300Y23126700D01*
X26216000Y23141500D01*
X26217300Y23158400D01*
X26214700Y23175400D01*
X26208000Y23186000D01*
X26198700Y23194400D01*
X26189300Y23196500D01*
X26180000Y23194400D01*
X26168000Y23186000D01*
X26172000Y23241000D01*
X26208000D01*
G01X26052900Y23368300D02*
X26084900D01*
G01X26067600Y23395900D02*
Y23340800D01*
G01X26746800Y21424900D02*
X26753500Y21412200D01*
X26761500Y21403700D01*
X26770800Y21399500D01*
X26781500Y21403700D01*
X26789500Y21412200D01*
X26797500Y21424900D01*
X26800200Y21441800D01*
Y21526500D01*
G01X26857200Y21424900D02*
X26865200Y21410100D01*
X26875800Y21401600D01*
X26887800Y21399500D01*
X26898500Y21401600D01*
X26909200Y21412200D01*
X26915800Y21424900D01*
X26917200Y21437600D01*
X26914500Y21452400D01*
X26905200Y21463000D01*
X26895800Y21467200D01*
X26883800D01*
G01X26895800D02*
X26903800Y21473600D01*
X26910500Y21484200D01*
X26913200Y21496900D01*
X26910500Y21509600D01*
X26903800Y21520100D01*
X26891800Y21526500D01*
X26879800Y21524400D01*
X26867800Y21515900D01*
G01X26841300Y21554600D02*
X26830800Y21546600D01*
X26824400Y21537300D01*
X26822300Y21525300D01*
X26826500Y21513300D01*
X26835000Y21504000D01*
X26849800Y21497300D01*
X26866700Y21496000D01*
X26883700Y21498600D01*
X26894300Y21505300D01*
X26902700Y21514600D01*
X26904800Y21524000D01*
X26902700Y21533300D01*
X26894300Y21545300D01*
X26949300Y21541300D01*
Y21505300D01*
G01X26822300Y23049300D02*
X26949300D01*
X26923900Y23065300D01*
G01X26822300D02*
Y23033300D01*
G01X26802800Y23230400D02*
X26794800Y23236800D01*
X26785500Y23241000D01*
X26774800D01*
X26762800Y23234600D01*
X26753500Y23224100D01*
X26746800Y23211400D01*
X26741500Y23190200D01*
X26740200Y23171100D01*
X26742800Y23152100D01*
X26746800Y23139400D01*
X26754800Y23126700D01*
X26764200Y23118200D01*
X26773500Y23114000D01*
X26782800D01*
X26792200Y23118200D01*
X26800200Y23124600D01*
X26806800Y23133000D01*
G01X26863800Y23128800D02*
X26873200Y23118200D01*
X26883800Y23114000D01*
X26894500Y23118200D01*
X26903800Y23130900D01*
X26910500Y23150000D01*
X26913200Y23169000D01*
Y23192300D01*
X26910500Y23211400D01*
X26903800Y23228300D01*
X26895800Y23236800D01*
X26886500Y23241000D01*
X26875800Y23236800D01*
X26867800Y23228300D01*
X26862500Y23215600D01*
X26859800Y23198700D01*
X26862500Y23183900D01*
X26869200Y23169000D01*
X26877200Y23160600D01*
X26886500Y23158400D01*
X26897200Y23162700D01*
X26905200Y23173300D01*
X26913200Y23192300D01*
G01X26712900Y23368300D02*
X26744900D01*
G01X26727600Y23395900D02*
Y23340800D01*
G01X27437800Y20626900D02*
X27429800Y20633300D01*
X27420500Y20637500D01*
X27409800D01*
X27397800Y20631100D01*
X27388500Y20620600D01*
X27381800Y20607900D01*
X27376500Y20586700D01*
X27375200Y20567600D01*
X27377800Y20548600D01*
X27381800Y20535900D01*
X27389800Y20523200D01*
X27399200Y20514700D01*
X27408500Y20510500D01*
X27417800D01*
X27427200Y20514700D01*
X27435200Y20521100D01*
X27441800Y20529500D01*
G01X27492200Y20535900D02*
X27500200Y20521100D01*
X27510800Y20512600D01*
X27522800Y20510500D01*
X27533500Y20512600D01*
X27544200Y20523200D01*
X27550800Y20535900D01*
X27552200Y20548600D01*
X27549500Y20563400D01*
X27540200Y20574000D01*
X27530800Y20578200D01*
X27518800D01*
G01X27530800D02*
X27538800Y20584600D01*
X27545500Y20595200D01*
X27548200Y20607900D01*
X27545500Y20620600D01*
X27538800Y20631100D01*
X27526800Y20637500D01*
X27514800Y20635400D01*
X27502800Y20626900D01*
G01X27437800Y21706400D02*
X27429800Y21712800D01*
X27420500Y21717000D01*
X27409800D01*
X27397800Y21710600D01*
X27388500Y21700100D01*
X27381800Y21687400D01*
X27376500Y21666200D01*
X27375200Y21647100D01*
X27377800Y21628100D01*
X27381800Y21615400D01*
X27389800Y21602700D01*
X27399200Y21594200D01*
X27408500Y21590000D01*
X27417800D01*
X27427200Y21594200D01*
X27435200Y21600600D01*
X27441800Y21609000D01*
G01X27496200Y21642900D02*
X27505500Y21657700D01*
X27513500Y21666200D01*
X27524200Y21670400D01*
X27533500Y21666200D01*
X27540200Y21657700D01*
X27545500Y21645000D01*
X27546800Y21630200D01*
X27545500Y21617500D01*
X27540200Y21604800D01*
X27532200Y21594200D01*
X27522800Y21590000D01*
X27512200Y21594200D01*
X27502800Y21606900D01*
X27497500Y21626000D01*
X27496200Y21647100D01*
X27498800Y21674700D01*
X27502800Y21689500D01*
X27509500Y21704300D01*
X27518800Y21714900D01*
X27528200Y21717000D01*
X27537500Y21712800D01*
X27544200Y21702200D01*
G01X27382900Y21858300D02*
X27414900D01*
G01X27397600Y21885900D02*
Y21830800D01*
G01X27818800Y23103400D02*
X27810800Y23109800D01*
X27801500Y23114000D01*
X27790800D01*
X27778800Y23107600D01*
X27769500Y23097100D01*
X27762800Y23084400D01*
X27757500Y23063200D01*
X27756200Y23044100D01*
X27758800Y23025100D01*
X27762800Y23012400D01*
X27770800Y22999700D01*
X27780200Y22991200D01*
X27789500Y22987000D01*
X27798800D01*
X27808200Y22991200D01*
X27816200Y22997600D01*
X27822800Y23006000D01*
G01X27902500Y22987000D02*
Y23114000D01*
X27886500Y23088600D01*
G01Y22987000D02*
X27918500D01*
G01X28015500Y23114000D02*
X28004800Y23109800D01*
X27996800Y23099200D01*
X27991500Y23086500D01*
X27987500Y23069500D01*
X27986200Y23050500D01*
X27987500Y23031400D01*
X27991500Y23014500D01*
X27996800Y23001800D01*
X28004800Y22991200D01*
X28015500Y22987000D01*
X28026200Y22991200D01*
X28034200Y23001800D01*
X28039500Y23014500D01*
X28043500Y23031400D01*
X28044800Y23050500D01*
X28043500Y23069500D01*
X28039500Y23086500D01*
X28034200Y23099200D01*
X28026200Y23109800D01*
X28015500Y23114000D01*
G01X28588300Y20383500D02*
Y20510500D01*
X28621700D01*
X28632300Y20504100D01*
X28639000Y20495700D01*
X28641700Y20478700D01*
X28639000Y20461800D01*
X28631000Y20451200D01*
X28621700Y20444900D01*
X28588300D01*
G01X28621700D02*
X28641700Y20383500D01*
G01X28728000D02*
X28737300Y20385600D01*
X28748000Y20392000D01*
X28754700Y20402500D01*
X28757300Y20417400D01*
X28754700Y20432200D01*
X28746700Y20444900D01*
X28734700Y20451200D01*
X28721300D01*
X28713300Y20455500D01*
X28706700Y20466000D01*
X28704000Y20480900D01*
X28708000Y20495700D01*
X28717300Y20506300D01*
X28728000Y20510500D01*
X28738700Y20506300D01*
X28748000Y20495700D01*
X28752000Y20480900D01*
X28749300Y20466000D01*
X28742700Y20455500D01*
X28734700Y20451200D01*
X28721300D01*
X28709300Y20444900D01*
X28701300Y20432200D01*
X28698700Y20417400D01*
X28701300Y20402500D01*
X28708000Y20392000D01*
X28718700Y20385600D01*
X28728000Y20383500D01*
G01X28571100Y20873300D02*
Y21000300D01*
X28604500D01*
X28615100Y20993900D01*
X28621800Y20985500D01*
X28624500Y20968500D01*
X28621800Y20951600D01*
X28613800Y20941000D01*
X28604500Y20934700D01*
X28571100D01*
G01X28604500D02*
X28624500Y20873300D01*
G01X28710800D02*
Y21000300D01*
X28694800Y20974900D01*
G01Y20873300D02*
X28726800D01*
G01X28627100Y21489700D02*
X28619100Y21496100D01*
X28609800Y21500300D01*
X28599100D01*
X28587100Y21493900D01*
X28577800Y21483400D01*
X28571100Y21470700D01*
X28565800Y21449500D01*
X28564500Y21430400D01*
X28567100Y21411400D01*
X28571100Y21398700D01*
X28579100Y21386000D01*
X28588500Y21377500D01*
X28597800Y21373300D01*
X28607100D01*
X28616500Y21377500D01*
X28624500Y21383900D01*
X28631100Y21392300D01*
G01X28710800Y21373300D02*
Y21500300D01*
X28694800Y21474900D01*
G01Y21373300D02*
X28726800D01*
G01X28842300Y21844000D02*
Y21971000D01*
X28875700D01*
X28886300Y21964600D01*
X28893000Y21956200D01*
X28895700Y21939200D01*
X28893000Y21922300D01*
X28885000Y21911700D01*
X28875700Y21905400D01*
X28842300D01*
G01X28875700D02*
X28895700Y21844000D01*
G01X28956700Y21949800D02*
X28964700Y21962500D01*
X28974000Y21968900D01*
X28984700Y21971000D01*
X28998000Y21966800D01*
X29007300Y21956200D01*
X29010000Y21943500D01*
X29008700Y21930800D01*
X29003300Y21920200D01*
X28976700Y21899000D01*
X28964700Y21884200D01*
X28956700Y21863000D01*
X28954000Y21844000D01*
X29010000D01*
G01X28715300Y22694900D02*
X28722000Y22682200D01*
X28730000Y22673700D01*
X28739300Y22669500D01*
X28750000Y22673700D01*
X28758000Y22682200D01*
X28766000Y22694900D01*
X28768700Y22711800D01*
Y22796500D01*
G01X28855000Y22669500D02*
Y22796500D01*
X28839000Y22771100D01*
G01Y22669500D02*
X28871000D01*
G01X28841300Y22754600D02*
X28830800Y22746600D01*
X28824400Y22737300D01*
X28822300Y22725300D01*
X28826500Y22713300D01*
X28835000Y22704000D01*
X28849800Y22697300D01*
X28866700Y22696000D01*
X28883700Y22698600D01*
X28894300Y22705300D01*
X28902700Y22714600D01*
X28904800Y22724000D01*
X28902700Y22733300D01*
X28894300Y22745300D01*
X28949300Y22741300D01*
Y22705300D01*
G01X29286800Y22669500D02*
Y22796500D01*
X29320200D01*
X29330800Y22790100D01*
X29337500Y22781700D01*
X29340200Y22764700D01*
X29337500Y22747800D01*
X29329500Y22737200D01*
X29320200Y22730900D01*
X29286800D01*
G01X29320200D02*
X29340200Y22669500D01*
G01X29397200Y22694900D02*
X29405200Y22680100D01*
X29415800Y22671600D01*
X29427800Y22669500D01*
X29438500Y22671600D01*
X29449200Y22682200D01*
X29455800Y22694900D01*
X29457200Y22707600D01*
X29454500Y22722400D01*
X29445200Y22733000D01*
X29435800Y22737200D01*
X29423800D01*
G01X29435800D02*
X29443800Y22743600D01*
X29450500Y22754200D01*
X29453200Y22766900D01*
X29450500Y22779600D01*
X29443800Y22790100D01*
X29431800Y22796500D01*
X29419800Y22794400D01*
X29407800Y22785900D01*
G01X29286800Y23241000D02*
Y23368000D01*
X29320200D01*
X29330800Y23361600D01*
X29337500Y23353200D01*
X29340200Y23336200D01*
X29337500Y23319300D01*
X29329500Y23308700D01*
X29320200Y23302400D01*
X29286800D01*
G01X29320200D02*
X29340200Y23241000D01*
G01X29442500D02*
Y23368000D01*
X29393200Y23277000D01*
X29459800D01*
G01X28822300Y24249300D02*
X28949300D01*
X28923900Y24265300D01*
G01X28822300D02*
Y24233300D01*
G01X29921800Y20002500D02*
Y20129500D01*
X29955200D01*
X29965800Y20123100D01*
X29972500Y20114700D01*
X29975200Y20097700D01*
X29972500Y20080800D01*
X29964500Y20070200D01*
X29955200Y20063900D01*
X29921800D01*
G01X29955200D02*
X29975200Y20002500D01*
G01X30036200Y20055400D02*
X30045500Y20070200D01*
X30053500Y20078700D01*
X30064200Y20082900D01*
X30073500Y20078700D01*
X30080200Y20070200D01*
X30085500Y20057500D01*
X30086800Y20042700D01*
X30085500Y20030000D01*
X30080200Y20017300D01*
X30072200Y20006700D01*
X30062800Y20002500D01*
X30052200Y20006700D01*
X30042800Y20019400D01*
X30037500Y20038500D01*
X30036200Y20059600D01*
X30038800Y20087200D01*
X30042800Y20102000D01*
X30049500Y20116800D01*
X30058800Y20127400D01*
X30068200Y20129500D01*
X30077500Y20125300D01*
X30084200Y20114700D01*
G01X29596800Y21007900D02*
X29588800Y21014300D01*
X29579500Y21018500D01*
X29568800D01*
X29556800Y21012100D01*
X29547500Y21001600D01*
X29540800Y20988900D01*
X29535500Y20967700D01*
X29534200Y20948600D01*
X29536800Y20929600D01*
X29540800Y20916900D01*
X29548800Y20904200D01*
X29558200Y20895700D01*
X29567500Y20891500D01*
X29576800D01*
X29586200Y20895700D01*
X29594200Y20902100D01*
X29600800Y20910500D01*
G01X29696500Y20891500D02*
Y21018500D01*
X29647200Y20927500D01*
X29713800D01*
G01X29578900Y21644100D02*
Y21553100D01*
X29584200Y21534000D01*
X29594900Y21521300D01*
X29608200Y21517100D01*
X29621500Y21521300D01*
X29632200Y21534000D01*
X29637500Y21553100D01*
Y21644100D01*
G01X29721200Y21517100D02*
Y21644100D01*
X29705200Y21618700D01*
G01Y21517100D02*
X29737200D01*
G01X29870600Y21984700D02*
Y22111700D01*
X29854600Y22086300D01*
G01Y21984700D02*
X29886600D01*
G01X29871100Y23473300D02*
Y23600300D01*
X29904500D01*
X29915100Y23593900D01*
X29921800Y23585500D01*
X29924500Y23568500D01*
X29921800Y23551600D01*
X29913800Y23541000D01*
X29904500Y23534700D01*
X29871100D01*
G01X29904500D02*
X29924500Y23473300D01*
G01X30010800D02*
Y23600300D01*
X29994800Y23574900D01*
G01Y23473300D02*
X30026800D01*
G01X30139800D02*
Y23600300D01*
X30090500Y23509300D01*
X30157100D01*
G01X30493300Y20891500D02*
Y21018500D01*
X30526700D01*
X30537300Y21012100D01*
X30544000Y21003700D01*
X30546700Y20986700D01*
X30544000Y20969800D01*
X30536000Y20959200D01*
X30526700Y20952900D01*
X30493300D01*
G01X30526700D02*
X30546700Y20891500D01*
G01X30630300D02*
X30633000Y20919000D01*
X30637000Y20942300D01*
X30642300Y20963500D01*
X30649000Y20986700D01*
X30659700Y21018500D01*
X30606300D01*
G01X30341000Y22584700D02*
Y22457700D01*
X30357000Y22483100D01*
G01Y22584700D02*
X30325000D01*
G01X30230700D02*
X30228000Y22557200D01*
X30224000Y22533900D01*
X30218700Y22512700D01*
X30212000Y22489500D01*
X30201300Y22457700D01*
X30254700D01*
G01X31064800Y20091400D02*
X31071500Y20078700D01*
X31079500Y20070200D01*
X31088800Y20066000D01*
X31099500Y20070200D01*
X31107500Y20078700D01*
X31115500Y20091400D01*
X31118200Y20108300D01*
Y20193000D01*
G01X31179200Y20171800D02*
X31187200Y20184500D01*
X31196500Y20190900D01*
X31207200Y20193000D01*
X31220500Y20188800D01*
X31229800Y20178200D01*
X31232500Y20165500D01*
X31231200Y20152800D01*
X31225800Y20142200D01*
X31199200Y20121000D01*
X31187200Y20106200D01*
X31179200Y20085000D01*
X31176500Y20066000D01*
X31232500D01*
G01X31318800Y20828000D02*
Y20955000D01*
X31352200D01*
X31362800Y20948600D01*
X31369500Y20940200D01*
X31372200Y20923200D01*
X31369500Y20906300D01*
X31361500Y20895700D01*
X31352200Y20889400D01*
X31318800D01*
G01X31352200D02*
X31372200Y20828000D01*
G01X31429200Y20847000D02*
X31437200Y20836500D01*
X31446500Y20830100D01*
X31458500Y20828000D01*
X31470500Y20832200D01*
X31479800Y20840700D01*
X31486500Y20855500D01*
X31487800Y20872400D01*
X31485200Y20889400D01*
X31478500Y20900000D01*
X31469200Y20908400D01*
X31459800Y20910500D01*
X31450500Y20908400D01*
X31438500Y20900000D01*
X31442500Y20955000D01*
X31478500D01*
G01X31091500Y21717000D02*
Y21774100D01*
X31064800Y21844000D01*
G01X31118200D02*
X31091500Y21774100D01*
G01X31179200Y21822800D02*
X31187200Y21835500D01*
X31196500Y21841900D01*
X31207200Y21844000D01*
X31220500Y21839800D01*
X31229800Y21829200D01*
X31232500Y21816500D01*
X31231200Y21803800D01*
X31225800Y21793200D01*
X31199200Y21772000D01*
X31187200Y21757200D01*
X31179200Y21736000D01*
X31176500Y21717000D01*
X31232500D01*
G54D12*
G01X23415400Y20826800D02*
Y21233200D01*
G01X24111300Y20826800D02*
X23415400D01*
G01X23355400Y20196800D02*
Y20603200D01*
G01D02*
X24051300D01*
G01Y20196800D02*
X23355400D01*
G01X23415400Y21233200D02*
X24111300D01*
G01X23265400Y23686800D02*
Y24093200D01*
G01X23961300D02*
Y23686800D01*
G01D02*
X23265400D01*
G01Y24093200D02*
X23961300D01*
G01X24111300Y21233200D02*
Y20826800D01*
G01X24051300Y20603200D02*
Y20196800D01*
G01X24655400Y21416800D02*
Y21823200D01*
G01X25351300Y21416800D02*
X24655400D01*
G01Y21823200D02*
X25351300D01*
G01X24665400Y21926800D02*
Y22333200D01*
G01D02*
X25361300D01*
G01Y21926800D02*
X24665400D01*
G01Y22986800D02*
Y23393200D01*
G01X25361300Y22986800D02*
X24665400D01*
G01Y22466800D02*
Y22873200D01*
G01D02*
X25361300D01*
G01Y22466800D02*
X24665400D01*
G01Y23393200D02*
X25361300D01*
G01X25351300Y21823200D02*
Y21416800D01*
G01X25361300Y22333200D02*
Y21926800D01*
G01Y23393200D02*
Y22986800D01*
G01Y22873200D02*
Y22466800D01*
G01X26413200Y21615400D02*
X26006800D01*
G01D02*
Y22311300D01*
G01D02*
X26413200D01*
G01X25986800Y23184600D02*
X26393200D01*
G01Y22488700D02*
X25986800D01*
G01D02*
Y23184600D01*
G01X26413200Y22311300D02*
Y21615400D01*
G01X26393200Y23184600D02*
Y22488700D01*
G01X27155400Y20746800D02*
Y21153200D01*
G01X27851300Y20746800D02*
X27155400D01*
G01Y21153200D02*
X27851300D01*
G01X27665400Y23196800D02*
Y23603200D01*
G01X28361300Y23196800D02*
X27665400D01*
G01Y23603200D02*
X28361300D01*
G01X27851300Y21153200D02*
Y20746800D01*
G01X28361300Y23603200D02*
Y23196800D01*
G01X28565400Y20596800D02*
Y21003200D01*
G01X29261300D02*
Y20596800D01*
G01D02*
X28565400D01*
G01Y21003200D02*
X29261300D01*
G01X28565400Y21096800D02*
Y21503200D01*
G01D02*
X29261300D01*
G01D02*
Y21096800D01*
G01D02*
X28565400D01*
G01Y21596800D02*
Y22003200D01*
G01X29261300D02*
Y21596800D01*
G01D02*
X28565400D01*
G01X29222700Y22090400D02*
X28816300D01*
G01D02*
Y22786300D01*
G01X29222700D02*
Y22090400D01*
G01X28565400Y22003200D02*
X29261300D01*
G01X28816300Y22786300D02*
X29222700D01*
G01X29165400Y22896800D02*
Y23303200D01*
G01X29861300Y22896800D02*
X29165400D01*
G01Y23303200D02*
X29861300D01*
G01X29603200Y23438700D02*
X29196800D01*
G01D02*
Y24134600D01*
G01D02*
X29603200D01*
G01X30302200Y20248900D02*
X29895800D01*
G01D02*
Y20944800D01*
G01D02*
X30302200D01*
G01X30234600Y21096800D02*
X29538700D01*
G01D02*
Y21503200D01*
G01D02*
X30234600D01*
G01X29861300Y23303200D02*
Y22896800D01*
G01X29865400Y23696800D02*
Y24103200D01*
G01X30561300Y23696800D02*
X29865400D01*
G01X29603200Y24134600D02*
Y23438700D01*
G01X29865400Y24103200D02*
X30561300D01*
G01X30302200Y20944800D02*
Y20248900D01*
G01X31034600Y21096800D02*
X30338700D01*
G01D02*
Y21503200D01*
G01D02*
X31034600D01*
G01X30234600D02*
Y21096800D01*
G01X30561300Y24103200D02*
Y23696800D01*
G01X31034600Y21503200D02*
Y21096800D01*
G01X31703200Y21065400D02*
X31296800D01*
G01D02*
Y21761300D01*
G01D02*
X31703200D01*
G01D02*
Y21065400D01*
G54D13*
G01X23450700Y21602700D02*
Y21745400D01*
G01X29770700Y21792700D02*
Y21935400D01*
M02*
