G04 ================== begin FILE IDENTIFICATION RECORD ==================*
G04 Layout Name:  C:/Users/user/Desktop/work/¶äºÎ±â/allegro/AVRUSB5.brd*
G04 Film Name:    SolderT*
G04 File Format:  Gerber RS274X*
G04 File Origin:  Cadence Allegro 17.2-P019*
G04 Origin Date:  Mon Jul 29 16:41:36 2019*
G04 *
G04 Layer:  VIA CLASS/SOLDERMASK_TOP*
G04 Layer:  PIN/SOLDERMASK_TOP*
G04 Layer:  PACKAGE GEOMETRY/SOLDERMASK_TOP*
G04 Layer:  BOARD GEOMETRY/SOLDERMASK_TOP*
G04 *
G04 Offset:    (0.000 0.000)*
G04 Mirror:    No*
G04 Mode:      Positive*
G04 Rotation:  0*
G04 FullContactRelief:  No*
G04 UndefLineWidth:     0.000*
G04 ================== end FILE IDENTIFICATION RECORD ====================*
%FSLAX25Y25*MOMM*%
%IR0*IPPOS*OFA0.00000B0.00000*MIA0B0*SFA1.00000B1.00000*%
%ADD23R,.4X1.72*%
%ADD16C,1.321*%
%ADD13C,1.118*%
%ADD17R,1.321X1.321*%
%ADD18C,1.575*%
%ADD20R,1.575X1.575*%
%ADD12O,.457X1.778*%
%ADD14O,1.778X.457*%
%ADD11R,.457X1.778*%
%ADD15R,1.778X.457*%
%ADD22O,1.2X1.9*%
%ADD21R,1.1X1.72*%
%ADD10R,1.499X2.845*%
%ADD19R,2.845X1.499*%
%LPD*%
G75*
G54D10*
X23550000Y21030000D03*
X23976700D03*
X23490000Y20400000D03*
X23916700D03*
X23400000Y23890000D03*
X23826700D03*
X24790000Y21620000D03*
X25216700D03*
X24800000Y22130000D03*
X25226700D03*
X24800000Y23190000D03*
X25226700D03*
X24800000Y22670000D03*
X25226700D03*
X27290000Y20950000D03*
X27716700D03*
X27800000Y23400000D03*
X28226700D03*
X28700000Y20800000D03*
X29126700D03*
X28700000Y21300000D03*
X29126700D03*
X28700000Y21800000D03*
X29126700D03*
X29300000Y23100000D03*
X30100000Y21300000D03*
X29673300D03*
X29726700Y23100000D03*
X30000000Y23900000D03*
X30473300Y21300000D03*
X30426700Y23900000D03*
X30900000Y21300000D03*
G54D11*
X23520000Y21670000D03*
X23840000Y22519600D03*
X29840000Y21860000D03*
X30160000Y22709600D03*
G54D20*
X25700000Y22800000D03*
X26900000D03*
X28900000Y24000000D03*
G54D21*
X30758000Y20267500D03*
X31218000D03*
G54D12*
X23600000Y21670000D03*
X23680000D03*
X23760000D03*
X23840000D03*
X23920000D03*
Y22519600D03*
X23760000D03*
X23680000D03*
X23600000D03*
X23520000D03*
X24000100Y21670000D03*
X24080100D03*
Y22519600D03*
X24000100D03*
X29920000Y21860000D03*
X30000000D03*
Y22709600D03*
X29920000D03*
X29840000D03*
X30080000Y21860000D03*
X30160000D03*
X30240000D03*
X30320100D03*
X30400100D03*
Y22709600D03*
X30320100D03*
X30240000D03*
X30080000D03*
G54D22*
X30475500Y20637500D03*
Y20267500D03*
X31500500D03*
Y20637500D03*
G54D13*
X23680000Y21405000D03*
X23558500Y21336000D03*
X23939500Y23114000D03*
X23685500Y22796500D03*
X24257000Y21590000D03*
X24080100Y22338400D03*
X24511000Y22098000D03*
X24447500Y21844000D03*
X24130000Y22923500D03*
X24892000Y22435700D03*
X25463500Y22860000D03*
X25717500Y20447000D03*
X25908000Y22098000D03*
X25844500Y23177500D03*
X27368500Y21907500D03*
X28194000Y20955000D03*
X28956000Y21336000D03*
Y21653500D03*
X30099000Y21717000D03*
X30035500Y21590000D03*
X29849500Y22420100D03*
X30099000Y22034500D03*
X29400500Y22733000D03*
Y22542500D03*
X30861000Y20955000D03*
X30480000Y21272500D03*
X30289500Y22161500D03*
X30296100Y22472300D03*
X30861000Y22288500D03*
X30670500Y21971000D03*
G54D14*
X23375200Y22374800D03*
Y22294800D03*
Y22214800D03*
Y22134800D03*
Y22054800D03*
Y21894800D03*
Y21814800D03*
X24224800D03*
Y21974800D03*
Y22054800D03*
Y22134800D03*
Y22214800D03*
Y22294800D03*
Y22374800D03*
X29695200Y22404800D03*
Y22324800D03*
Y22244800D03*
Y22084800D03*
Y22004800D03*
Y22564800D03*
Y22484800D03*
X30544800Y22004800D03*
Y22164800D03*
Y22244800D03*
Y22324800D03*
Y22404800D03*
Y22484800D03*
Y22564800D03*
G54D23*
X31053000Y20267500D03*
X31118000D03*
X30858000D03*
X30923000D03*
X30988000D03*
G54D15*
X23375200Y21974800D03*
X24224800Y21894800D03*
X29695200Y22164800D03*
X30544800Y22084800D03*
G54D16*
X23550000Y22992500D03*
X24770000Y20130000D03*
Y20892000D03*
X26324000Y23610000D03*
X26984000D03*
X27654000Y22100000D03*
X31300000D03*
Y22862000D03*
G54D17*
X23550000Y23310000D03*
X26070000Y23610000D03*
X26730000D03*
X27400000Y22100000D03*
G54D18*
X25700000Y22292000D03*
Y22038000D03*
Y21784000D03*
Y22546000D03*
X26900000Y22292000D03*
Y22038000D03*
Y21784000D03*
Y22546000D03*
X28900000Y23238000D03*
Y22984000D03*
Y23746000D03*
Y23492000D03*
G54D19*
X26210000Y21750000D03*
Y22176700D03*
X26190000Y23050000D03*
Y22623300D03*
X29019500Y22225000D03*
Y22651700D03*
X29400000Y24000000D03*
Y23573300D03*
X30099000Y20383500D03*
Y20810200D03*
X31500000Y21200000D03*
Y21626700D03*
M02*
