G04 ================== begin FILE IDENTIFICATION RECORD ==================*
G04 Layout Name:  C:/Users/user/Desktop/work/¶äºÎ±â/allegro/AVRUSB5.brd*
G04 Film Name:    SolderB*
G04 File Format:  Gerber RS274X*
G04 File Origin:  Cadence Allegro 17.2-P019*
G04 Origin Date:  Mon Jul 29 16:41:36 2019*
G04 *
G04 Layer:  VIA CLASS/SOLDERMASK_BOTTOM*
G04 Layer:  PIN/SOLDERMASK_BOTTOM*
G04 Layer:  PACKAGE GEOMETRY/SOLDERMASK_BOTTOM*
G04 Layer:  BOARD GEOMETRY/SOLDERMASK_BOTTOM*
G04 *
G04 Offset:    (0.000 0.000)*
G04 Mirror:    No*
G04 Mode:      Positive*
G04 Rotation:  0*
G04 FullContactRelief:  No*
G04 UndefLineWidth:     0.000*
G04 ================== end FILE IDENTIFICATION RECORD ====================*
%FSLAX25Y25*MOMM*%
%IR0*IPPOS*OFA0.00000B0.00000*MIA0B0*SFA1.00000B1.00000*%
%ADD11C,1.321*%
%ADD10C,1.118*%
%ADD12R,1.321X1.321*%
%ADD13C,1.575*%
%ADD14R,1.575X1.575*%
%ADD15O,1.2X1.9*%
%LPD*%
G75*
G54D10*
X23680000Y21405000D03*
X23558500Y21336000D03*
X23939500Y23114000D03*
X23685500Y22796500D03*
X24257000Y21590000D03*
X24080100Y22338400D03*
X24511000Y22098000D03*
X24447500Y21844000D03*
X24130000Y22923500D03*
X24892000Y22435700D03*
X25463500Y22860000D03*
X25717500Y20447000D03*
X25908000Y22098000D03*
X25844500Y23177500D03*
X27368500Y21907500D03*
X28194000Y20955000D03*
X28956000Y21336000D03*
Y21653500D03*
X30099000Y21717000D03*
X30035500Y21590000D03*
X29849500Y22420100D03*
X30099000Y22034500D03*
X29400500Y22733000D03*
Y22542500D03*
X30861000Y20955000D03*
X30480000Y21272500D03*
X30289500Y22161500D03*
X30296100Y22472300D03*
X30861000Y22288500D03*
X30670500Y21971000D03*
G54D11*
X23550000Y22992500D03*
X24770000Y20130000D03*
Y20892000D03*
X26324000Y23610000D03*
X26984000D03*
X27654000Y22100000D03*
X31300000D03*
Y22862000D03*
G54D12*
X23550000Y23310000D03*
X26070000Y23610000D03*
X26730000D03*
X27400000Y22100000D03*
G54D13*
X25700000Y22292000D03*
Y22038000D03*
Y21784000D03*
Y22546000D03*
X26900000Y22292000D03*
Y22038000D03*
Y21784000D03*
Y22546000D03*
X28900000Y23238000D03*
Y22984000D03*
Y23746000D03*
Y23492000D03*
G54D14*
X25700000Y22800000D03*
X26900000D03*
X28900000Y24000000D03*
G54D15*
X30475500Y20637500D03*
Y20267500D03*
X31500500D03*
Y20637500D03*
M02*
