G04 ================== begin FILE IDENTIFICATION RECORD ==================*
G04 Layout Name:  C:/Users/user/Desktop/work/¶äºÎ±â/allegro/AVRUSB5.brd*
G04 Film Name:    TOP*
G04 File Format:  Gerber RS274X*
G04 File Origin:  Cadence Allegro 17.2-P019*
G04 Origin Date:  Mon Jul 29 16:41:36 2019*
G04 *
G04 Layer:  ETCH/TOP*
G04 Layer:  PIN/TOP*
G04 Layer:  VIA CLASS/TOP*
G04 *
G04 Offset:    (0.000 0.000)*
G04 Mirror:    No*
G04 Mode:      Positive*
G04 Rotation:  0*
G04 FullContactRelief:  No*
G04 UndefLineWidth:     0.000*
G04 ================== end FILE IDENTIFICATION RECORD ====================*
%FSLAX25Y25*MOMM*%
%IR0*IPPOS*OFA0.00000B0.00000*MIA0B0*SFA1.00000B1.00000*%
%ADD23R,.4X1.72*%
%ADD16C,1.321*%
%ADD17R,1.321X1.321*%
%ADD18C,1.575*%
%ADD20R,1.575X1.575*%
%ADD12O,.457X1.778*%
%ADD14O,1.778X.457*%
%ADD11R,.457X1.778*%
%ADD15R,1.778X.457*%
%ADD22O,1.2X1.9*%
%ADD21R,1.1X1.72*%
%ADD13C,.61*%
%ADD10R,1.499X2.845*%
%ADD19R,2.845X1.499*%
%ADD24C,.254*%
%ADD26C,1.58*%
%ADD25C,1.834*%
%ADD27C,2.088*%
%ADD28O,1.712X2.412*%
G75*
%LPD*%
G75*
G36*
G01X30140300Y20105800D02*
X30137300Y20108800D01*
Y20283000D01*
X30241300D01*
G03X30266800Y20308500I-50J25550D01*
G01Y20458500D01*
G03X30241300Y20484000I-25550J-50D01*
G01X29956700D01*
G03X29931200Y20458500I50J-25550D01*
G01Y20308500D01*
G03X29956700Y20283000I25550J50D01*
G01X30060700D01*
Y20077000D01*
X30108500Y20029200D01*
X30327400D01*
Y19800100D01*
X23000100D01*
Y24199900D01*
X32399900D01*
Y19800100D01*
X31712100D01*
Y20980600D01*
X30774900D01*
G02X30767700Y20998000I-3J10188D01*
G01X30813400Y21043700D01*
X31330600D01*
X31386300Y21099400D01*
X31642200D01*
G03X31667800Y21125000I0J25600D01*
G01Y21275000D01*
G03X31642200Y21300600I-25600J0D01*
G01X31357800D01*
G03X31332200Y21275000I0J-25600D01*
G01Y21153600D01*
X31298800Y21120300D01*
X30781600D01*
X30641900Y20980600D01*
X30358400D01*
Y21613400D01*
G02X30375800Y21620600I10188J3D01*
G01X30444700Y21551700D01*
X30565700D01*
X30568700Y21548700D01*
Y21513600D01*
X30723800Y21358500D01*
X30791100D01*
X30799400Y21350200D01*
Y21157800D01*
G03X30825000Y21132200I25600J0D01*
G01X30975000D01*
G03X31000600Y21157800I0J25600D01*
G01Y21442200D01*
G03X30975000Y21467800I-25600J0D01*
G01X30825000D01*
G03X30799400Y21442200I0J-25600D01*
G01Y21435100D01*
X30755600D01*
X30645300Y21545400D01*
Y21580500D01*
X30597500Y21628300D01*
X30476500D01*
X30358400Y21746400D01*
Y21754400D01*
G02X30365100Y21759300I5109J45D01*
G01X30367000Y21758600D01*
X30367800Y21757900D01*
G03X30448600Y21793900I32349J36070D01*
G01Y21805700D01*
X30781600D01*
X30998900Y21588400D01*
X31332200D01*
Y21551700D01*
G03X31357700Y21526200I25550J50D01*
G01X31642300D01*
G03X31667800Y21551700I-50J25550D01*
G01Y21701700D01*
G03X31642300Y21727200I-25550J-50D01*
G01X31357700D01*
G03X31332200Y21701700I50J-25550D01*
G01Y21665000D01*
X31030700D01*
X30813400Y21882300D01*
X30486300D01*
X30470300Y21898300D01*
X30448600D01*
Y21926100D01*
G03X30367100Y21961500I-48461J-52D01*
G02X30353100I-7000J7439D01*
G03X30287000Y21961400I-32996J-35459D01*
G02X30273100I-6950J7492D01*
G03X30207000Y21961500I-33104J-35359D01*
G02X30193000I-7000J7439D01*
G03X30127000I-33000J-35450D01*
G02X30113000I-7000J7439D01*
G03X30111200Y21963100I-33072J-35393D01*
G02X30114900Y21980700I6564J7809D01*
G03X30042900Y22034700I-15900J53800D01*
G01Y22032600D01*
X29996000Y21985700D01*
Y21976200D01*
X29994000Y21974100D01*
G03X29967000Y21961500I5990J-48063D01*
G02X29953000I-7000J7439D01*
G03X29890600Y21964600I-33038J-35445D01*
G01X29889900Y21964100D01*
X29886800Y21963000D01*
X29883000Y21964800D01*
X29882300Y21965600D01*
G03X29862800Y21974500I-19408J-16711D01*
G01X29817200D01*
G03X29816600I-300J-25600D01*
G02X29806800Y21988200I-242J10182D01*
G03X29788700Y22044700I-45535J16562D01*
G02X29787100Y22060100I5809J8387D01*
G03X29791300Y22104200I-25844J24711D01*
G02X29795300Y22118900I8519J5576D01*
G03X29809700Y22142000I-11209J23026D01*
G01Y22187600D01*
G03X29795300Y22210700I-25609J74D01*
G02X29791300Y22225400I4519J9124D01*
G03X29796900Y22247000I-30073J19323D01*
G02X29807100Y22257800I10190J592D01*
G01X29910500D01*
X29939200Y22286500D01*
X30237300D01*
X30296700Y22227100D01*
Y22222900D01*
X30291400Y22217600D01*
X30289300D01*
G03X30345600Y22161300I200J-56100D01*
G01Y22163400D01*
X30373300Y22191100D01*
Y22258900D01*
X30269100Y22363100D01*
X30265700D01*
G02X30258500Y22380500I-3J10188D01*
G01X30294200Y22416200D01*
X30296300D01*
G03X30240000Y22472500I-200J56100D01*
G01Y22470400D01*
X30212700Y22443100D01*
X29915500D01*
G02X29899400Y22445800I-7044J7349D01*
G03X29887800Y22461100I-49854J-25751D01*
G01Y22492000D01*
X29883300Y22496500D01*
Y22591200D01*
G02X29898100Y22600300I10187J17D01*
G03X29953000Y22608100I21860J43242D01*
G02X29967000I7000J-7439D01*
G03X30033000I33000J35450D01*
G02X30047000I7000J-7439D01*
G03X30109600Y22605000I33131J35414D01*
G01X30110200Y22605500D01*
X30113200Y22606600D01*
X30117000Y22604800D01*
X30117700Y22604000D01*
G03X30137200Y22595100I19408J16711D01*
G01X30182800D01*
G03X30202300Y22604000I92J25611D01*
G01X30203000Y22604800D01*
X30206800Y22606600D01*
X30209800Y22605500D01*
X30210400Y22605000D01*
G03X30273100Y22608200I29466J38515D01*
G02X30287000I6950J-7492D01*
G03X30360000Y22616100I33101J35361D01*
G02X30375400Y22617700I8387J-5809D01*
G03X30435800Y22643500I24666J25857D01*
G01Y22775700D01*
G03X30375400Y22801500I-35734J-57D01*
G02X30360000Y22803100I-7013J7409D01*
G03X30358400Y22805300I-39959J-27379D01*
G01Y23614500D01*
X30327800Y23645100D01*
Y23724700D01*
G02X30341900Y23734100I10190J-11D01*
G03X30351800Y23732200I9678J23683D01*
G01X30501700D01*
G03X30527200Y23757700I-50J25550D01*
G01Y24042300D01*
G03X30501700Y24067800I-25550J-50D01*
G01X30351700D01*
G03X30326200Y24042300I50J-25550D01*
G01Y23978900D01*
G02X30308700Y23971700I-10229J-6D01*
G01X30112200Y24168300D01*
X29014100D01*
X28950200Y24104400D01*
X28821200D01*
G03X28795600Y24078800I50J-25650D01*
G01Y23921200D01*
G03X28821200Y23895600I25650J50D01*
G01X28978800D01*
G03X29004400Y23921200I-50J25650D01*
G01Y24050200D01*
X29045900Y24091700D01*
X29222600D01*
G02X29232600Y24079600I-27J-10205D01*
G03X29232200Y24075000I25163J-4505D01*
G01Y23925000D01*
G03X29257800Y23899400I25600J0D01*
G01X29542200D01*
G03X29567800Y23925000I0J25600D01*
G01Y23961700D01*
X29578100D01*
X29997200Y23542600D01*
Y23415600D01*
X30187700Y23225100D01*
Y23063300D01*
X30201700Y23049300D01*
Y22899600D01*
G02X30184300Y22892400I-10188J-3D01*
G01X30069400Y23007300D01*
X30001600D01*
X29964900Y22970600D01*
X29827200D01*
Y23242300D01*
G03X29801700Y23267800I-25550J-50D01*
G01X29651700D01*
G03X29626200Y23242300I50J-25550D01*
G01Y23172700D01*
G02X29608700Y23165500I-10229J-6D01*
G01X29317700Y23456600D01*
X29011700D01*
G02X29001800Y23469000I70J10208D01*
G03X28938500Y23395000I-101807J23013D01*
G01X28941600Y23396200D01*
X28957800Y23380000D01*
X29285900D01*
X29396600Y23269300D01*
X29390300Y23263100D01*
X29387000Y23264800D01*
G03X29375000Y23267800I-12018J-22573D01*
G01X29225000D01*
G03X29199400Y23242200I0J-25600D01*
G01Y22957800D01*
G03X29225000Y22932200I25600J0D01*
G01X29375000D01*
G03X29400600Y22957800I0J25600D01*
G01Y23061700D01*
X29457600D01*
X29575300Y22944000D01*
Y22926100D01*
X29585700Y22915700D01*
G02X29578500Y22898300I-7197J-7212D01*
G01X29321100D01*
X29235200Y22812400D01*
Y22427600D01*
X29133200Y22325600D01*
X28877200D01*
G03X28851600Y22300000I50J-25650D01*
G01Y22150000D01*
G03X28877200Y22124400I25650J50D01*
G01X29161800D01*
G03X29187400Y22150000I-50J25650D01*
G01Y22271400D01*
X29311800Y22395800D01*
Y22768800D01*
X29314600Y22770200D01*
G02X29344600Y22775800I22460J-37167D01*
G02X29351700Y22760700I-1771J-10052D01*
G03X29400300Y22676900I48792J-27696D01*
G01X29402400D01*
X29446100Y22633200D01*
X29620900D01*
X29624700Y22629500D01*
G02X29619500Y22612300I-7233J-7199D01*
G03X29588300Y22538800I9663J-47474D01*
G02X29579700Y22523100I-8601J-5494D01*
G01X29474100D01*
X29456600Y22540600D01*
Y22542700D01*
G03X29400300Y22486400I-56100J-200D01*
G01X29402400D01*
X29442300Y22446500D01*
X29579700D01*
G02X29588300Y22430800I-1J-10206D01*
G03X29593700Y22371800I40860J-26007D01*
G02Y22357800I-7439J-7000D01*
G03X29601700Y22284900I35459J-32998D01*
G02X29603300Y22269500I-5809J-8387D01*
G03X29599100Y22225400I25844J-24711D01*
G02X29595100Y22210700I-8519J-5576D01*
G03X29585900Y22203100I11259J-22998D01*
G01X29408300D01*
X29173100Y21967800D01*
X29051700D01*
G03X29026200Y21942300I50J-25550D01*
G01Y21838300D01*
X29010400D01*
X28957300Y21785200D01*
Y21714600D01*
X28952600Y21709600D01*
X28950700Y21709400D01*
G03X29012100Y21653300I5283J-55868D01*
G01Y21655400D01*
X29021100Y21664400D01*
X29026200Y21659200D01*
Y21657200D01*
G03X29051700Y21632200I25562J569D01*
G01X29201700D01*
G03X29227200Y21657700I-50J25550D01*
G01Y21913700D01*
X29440100Y22126500D01*
X29585900D01*
G03X29595100Y22118900I20459J15398D01*
G02X29599100Y22104200I-4519J-9124D01*
G03X29603300Y22060100I30044J-19389D01*
G02X29601700Y22044700I-7409J-7013D01*
G03X29629200Y21956400I27483J-39873D01*
G01X29761200D01*
G03X29777900Y21959300I193J48425D01*
G02X29791600Y21949500I3491J-9596D01*
G01Y21771100D01*
G03X29817200Y21745500I25600J0D01*
G01X29862800D01*
G03X29882300Y21754400I92J25611D01*
G01X29883000Y21755200D01*
X29886800Y21757000D01*
X29889800Y21755900D01*
X29890400Y21755400D01*
G03X29946000Y21753100I29442J38532D01*
G02X29961700Y21744500I5494J-8601D01*
G01Y21698100D01*
X29933700Y21670100D01*
Y21639500D01*
X29928600Y21634400D01*
Y21545600D01*
X29933700Y21540500D01*
Y20970900D01*
X29930700Y20967900D01*
X29568800D01*
X29565800Y20970900D01*
Y21015500D01*
X29243000Y21338300D01*
X29227200D01*
Y21442300D01*
G03X29201700Y21467800I-25550J-50D01*
G01X29051700D01*
G03X29026200Y21442300I50J-25550D01*
G01Y21186300D01*
X28960100Y21120300D01*
X28527400D01*
X27701900Y21945800D01*
X27409500D01*
G03Y21869200I-41000J-38300D01*
G01X27670100D01*
X28495600Y21043700D01*
X28991900D01*
X29080300Y21132200D01*
X29088400D01*
Y20967800D01*
X29051700D01*
G03X29026200Y20942300I50J-25550D01*
G01Y20777300D01*
G02X29008700Y20770100I-10229J-6D01*
G01X28940600Y20838300D01*
X28800600D01*
Y20942200D01*
G03X28775000Y20967800I-25600J0D01*
G01X28625000D01*
G03X28599400Y20942200I0J-25600D01*
G01Y20657800D01*
G03X28625000Y20632200I25600J0D01*
G01X28775000D01*
G03X28800600Y20657800I0J25600D01*
G01Y20761700D01*
X28908800D01*
X28975300Y20695200D01*
Y20626100D01*
X29020100Y20581300D01*
X29038000D01*
X29092800Y20526500D01*
X29160600D01*
X29215400Y20581300D01*
X29233300D01*
X29278100Y20626100D01*
Y20695200D01*
X29344600Y20761700D01*
X29840100D01*
X29880300Y20721500D01*
Y20703600D01*
X29925100Y20658800D01*
X29943000D01*
X30002600Y20599200D01*
X30195400D01*
X30255000Y20658800D01*
X30272900D01*
X30310000Y20695900D01*
G02X30327400Y20688700I7212J-7197D01*
G01Y20105800D01*
X30140300D01*
G37*
G36*
G01X30353000D02*
Y20942700D01*
X30358400Y20948100D01*
Y20955000D01*
X30632200D01*
Y20757000D01*
X30935600Y20453600D01*
Y20445200D01*
X30949700Y20431100D01*
Y20371400D01*
G03X30945700Y20366100I18264J-17944D01*
G03X30943000Y20366400I-2766J-12593D01*
G01X30903000D01*
G03X30900300Y20366100I66J-12893D01*
G03X30878000Y20379100I-22300J-12627D01*
G01X30838000D01*
G03X30825500Y20375800I68J-25582D01*
G03X30813000Y20379100I-12568J-22282D01*
G01X30703000D01*
G03X30677400Y20353500I0J-25600D01*
G01Y20181500D01*
G03X30703000Y20155900I25600J0D01*
G01X30813000D01*
G03X30825500Y20159200I-68J25582D01*
G03X30838000Y20155900I12568J22282D01*
G01X30878000D01*
G03X30900300Y20168900I0J25627D01*
G03X30903000Y20168600I2766J12593D01*
G01X30943000D01*
G03X30945700Y20168900I-66J12893D01*
G03X30968000Y20155900I22300J12627D01*
G01X31014700D01*
Y20108800D01*
X31011700Y20105800D01*
X30353000D01*
G37*
%LPC*%
G75*
G36*
G01X27817200Y20807800D02*
G02X27791600Y20782200I-25550J-50D01*
G01X27641800D01*
G02X27616200Y20807800I-50J25550D01*
G01Y21092200D01*
G02X27641800Y21117800I25550J50D01*
G01X27791600D01*
G02X27817200Y21092200I50J-25550D01*
G01Y20993300D01*
X28153000D01*
G02Y20916700I41000J-38300D01*
G01X27838000D01*
X27833000Y20911700D01*
X27817200D01*
Y20807800D01*
G37*
G36*
G01X28956200Y21279900D02*
X28954100D01*
X28935900Y21261700D01*
X28800600D01*
Y21157800D01*
G02X28775000Y21132200I-25600J0D01*
G01X28625000D01*
G02X28599400Y21157800I0J25600D01*
G01Y21442200D01*
G02X28625000Y21467800I25600J0D01*
G01X28775000D01*
G02X28800600Y21442200I0J-25600D01*
G01Y21338300D01*
X28899800D01*
X28900300Y21342800D01*
G02X28956200Y21279900I55692J-6796D01*
G37*
G36*
G01X26377800Y21675000D02*
G02X26352200Y21649400I-25600J0D01*
G01X26067800D01*
G02X26042200Y21675000I0J25600D01*
G01Y21796400D01*
X25869700Y21968800D01*
Y22057000D01*
G02X25946300I38300J41000D01*
G01Y22000600D01*
X26096300Y21850600D01*
X26352200D01*
G02X26377800Y21825000I0J-25600D01*
G01Y21675000D01*
G37*
G36*
G01X26804200Y22079600D02*
X26745400Y22138400D01*
X26377800D01*
Y22101800D01*
G02X26352200Y22076200I-25550J-50D01*
G01X26067800D01*
G02X26042200Y22101800I-50J25550D01*
G01Y22251600D01*
G02X26067800Y22277200I25550J50D01*
G01X26352200D01*
G02X26377800Y22251600I50J-25550D01*
G01Y22215000D01*
X26777200D01*
X26858400Y22133800D01*
X26861500Y22135000D01*
G02X26803000Y22076500I38500J-97000D01*
G01X26804200Y22079600D01*
G37*
G36*
G01X30640900Y22024200D02*
G02X30610800Y21969000I-30038J-19427D01*
G01X30478800D01*
G02X30448700Y22024200I-62J35773D01*
G03X30444700Y22038900I-8519J5576D01*
G02X30430300Y22062000I11209J23026D01*
G01Y22107600D01*
G02X30439900Y22127600I25591J20D01*
G03X30440700Y22134800I-3177J3997D01*
G02X30443300Y22197800I38052J29983D01*
G03Y22211800I-7439J7000D01*
G02Y22277800I35450J33000D01*
G03Y22291800I-7439J7000D01*
G02X30451300Y22364700I35459J32998D01*
G03X30452900Y22380100I-5809J8387D01*
G02Y22429500I25850J24700D01*
G03X30451300Y22444900I-7409J7013D01*
G02X30443300Y22517800I27459J39902D01*
G03Y22531800I-7439J7000D01*
G02X30478800Y22613200I35469J32973D01*
G01X30610800D01*
G02X30646300Y22531800I31J-48427D01*
G03Y22517800I7439J-7000D01*
G02X30638300Y22444900I-35459J-32998D01*
G03X30636700Y22429500I5809J-8387D01*
G02Y22380100I-25850J-24700D01*
G03X30638300Y22364700I7409J-7013D01*
G02X30640500Y22363100I-27379J-39959D01*
G01X30738500D01*
X30774800Y22326800D01*
X30820000D01*
G02Y22250200I41000J-38300D01*
G01X30743000D01*
X30706700Y22286500D01*
X30660300D01*
G03X30651700Y22270800I1J-10206D01*
G02X30646300Y22211800I-40860J-26007D01*
G03Y22197800I7439J-7000D01*
G02X30648900Y22134800I-35452J-33017D01*
G03X30649700Y22127600I3977J-3203D01*
G02X30659300Y22107600I-15991J-19980D01*
G01Y22062000D01*
G02X30644900Y22038900I-25609J-74D01*
G03X30640900Y22024200I4519J-9124D01*
G37*
G36*
G01X28995800Y23196400D02*
X29057800Y23134400D01*
Y22752200D01*
X29161800D01*
G02X29187400Y22726600I0J-25600D01*
G01Y22576800D01*
G02X29161800Y22551200I-25600J0D01*
G01X28877200D01*
G02X28851600Y22576800I0J25600D01*
G01Y22726600D01*
G02X28877200Y22752200I25600J0D01*
G01X28981200D01*
Y22910900D01*
G03X28963900Y22918200I-10190J1D01*
G02Y23049800I-63900J65800D01*
G03X28981200Y23057100I7110J7299D01*
G01Y23102600D01*
X28941600Y23142200D01*
X28938500Y23141000D01*
G02X28803000Y23276500I-38500J97000D01*
G01X28804200Y23279600D01*
X28722100Y23361700D01*
X28327200D01*
Y23257800D01*
G02X28301600Y23232200I-25550J-50D01*
G01X28151800D01*
G02X28126200Y23257800I-50J25550D01*
G01Y23542200D01*
G02X28151800Y23567800I25550J50D01*
G01X28301600D01*
G02X28327200Y23542200I50J-25550D01*
G01Y23438300D01*
X28753900D01*
X28858400Y23333800D01*
X28861500Y23335000D01*
G02X28995800Y23196400I38532J-97030D01*
G37*
G36*
G01X23641600Y23244000D02*
G02X23616000Y23218400I-25550J-50D01*
G01X23484000D01*
G02X23458400Y23244000I-50J25550D01*
G01Y23376000D01*
G02X23484000Y23401600I25550J50D01*
G01X23511700D01*
Y23656800D01*
X23446400Y23722200D01*
X23325000D01*
G02X23299400Y23747800I0J25600D01*
G01Y24032200D01*
G02X23325000Y24057800I25600J0D01*
G01X23475000D01*
G02X23500600Y24032200I0J-25600D01*
G01Y23776300D01*
X23588300Y23688600D01*
Y23401600D01*
X23616000D01*
G02X23641600Y23376000I50J-25550D01*
G01Y23244000D01*
G37*
G36*
G01X29567800Y23498400D02*
G02X29542200Y23472800I-25550J-50D01*
G01X29257800D01*
G02X29232200Y23498400I-50J25550D01*
G01Y23619700D01*
X29144100Y23707700D01*
X28997100D01*
G02Y23784300I-97100J38300D01*
G01X29175900D01*
X29286300Y23673800D01*
X29542200D01*
G02X29567800Y23648200I50J-25550D01*
G01Y23498400D01*
G37*
G36*
G01X26638400Y23544000D02*
Y23676000D01*
G02X26664000Y23701600I25550J50D01*
G01X26796000D01*
G02X26821600Y23676000I50J-25550D01*
G01Y23544000D01*
G02X26796000Y23518400I-25550J-50D01*
G01X26664000D01*
G02X26638400Y23544000I-50J25550D01*
G37*
G36*
G01X27202200Y20807800D02*
Y21092200D01*
G02X27215000Y21105200I12900J100D01*
G01X27365000D01*
G02X27377800Y21092200I-100J-12900D01*
G01Y20807800D01*
G02X27365000Y20794800I-12900J-100D01*
G01X27215000D01*
G02X27202200Y20807800I100J12900D01*
G37*
G36*
G01X27712200Y23257800D02*
Y23542200D01*
G02X27725000Y23555200I12900J100D01*
G01X27875000D01*
G02X27887800Y23542200I-100J-12900D01*
G01Y23257800D01*
G02X27875000Y23244800I-12900J-100D01*
G01X27725000D01*
G02X27712200Y23257800I100J12900D01*
G37*
G36*
G01X28612200Y21657800D02*
Y21942200D01*
G02X28625000Y21955200I12900J100D01*
G01X28775000D01*
G02X28787800Y21942200I-100J-12900D01*
G01Y21657800D01*
G02X28775000Y21644800I-12900J-100D01*
G01X28625000D01*
G02X28612200Y21657800I100J12900D01*
G37*
G36*
G01X29585400Y21157800D02*
Y21442200D01*
G02X29598400Y21455200I12950J50D01*
G01X29748200D01*
G02X29761200Y21442200I50J-12950D01*
G01Y21157800D01*
G02X29748200Y21144800I-12950J-50D01*
G01X29598400D01*
G02X29585400Y21157800I-50J12950D01*
G37*
G36*
G01X30372800D02*
Y21442200D01*
G02X30398400Y21467800I25550J50D01*
G01X30548200D01*
G02X30573800Y21442200I50J-25550D01*
G01Y21157800D01*
G02X30548200Y21132200I-25550J-50D01*
G01X30398400D01*
G02X30372800Y21157800I-50J25550D01*
G37*
G36*
G01X25431500Y19900700D02*
X23352100D01*
X23150200Y20102600D01*
Y21288400D01*
X23471600Y21609700D01*
Y21758900D01*
Y21759500D01*
G03X23457900Y21769300I-10209J204D01*
G02X23441200Y21766400I-16507J45525D01*
G01X23309200D01*
G02X23273700Y21847800I-31J48427D01*
G03Y21861800I-7439J7000D01*
G02X23271100Y21924800I35452J33017D01*
G03X23270300Y21932000I-3977J3203D01*
G02X23260700Y21952000I15991J19980D01*
G01Y21997600D01*
G02X23270300Y22017600I25591J20D01*
G03X23271100Y22024800I-3177J3997D01*
G02X23273700Y22087800I38052J29983D01*
G03Y22101800I-7439J7000D01*
G02Y22167800I35450J33000D01*
G03Y22181800I-7439J7000D01*
G02Y22247800I35450J33000D01*
G03Y22261800I-7439J7000D01*
G02Y22327800I35450J33000D01*
G03Y22341800I-7439J7000D01*
G02X23309200Y22423200I35469J32973D01*
G01X23441200D01*
G02X23476700Y22341800I31J-48427D01*
G03Y22327800I7439J-7000D01*
G02Y22261800I-35450J-33000D01*
G03Y22247800I7439J-7000D01*
G02Y22181800I-35450J-33000D01*
G03Y22167800I7439J-7000D01*
G02Y22101800I-35450J-33000D01*
G03Y22087800I7439J-7000D01*
G02X23479300Y22024800I-35452J-33017D01*
G03X23480100Y22017600I3977J-3203D01*
G02X23489700Y21997600I-15991J-19980D01*
G01Y21952000D01*
G02X23480100Y21932000I-25591J-20D01*
G03X23479300Y21924800I3177J-3997D01*
G02X23476700Y21861800I-38052J-29983D01*
G03Y21847800I7439J-7000D01*
G02X23486800Y21798200I-35438J-33045D01*
G03X23496600Y21784500I9558J-3518D01*
G02X23497200I300J-25600D01*
G01X23542800D01*
G02X23562800Y21774900I20J-25591D01*
G03X23570000Y21774100I3997J3177D01*
G02X23633000Y21771500I29983J-38052D01*
G03X23647000I7000J7439D01*
G02X23713000I33000J-35450D01*
G03X23727000I7000J7439D01*
G02X23793000I33000J-35450D01*
G03X23807000I7000J7439D01*
G02X23873000I33000J-35450D01*
G03X23887000I7000J7439D01*
G02X23893800Y21776800I33062J-35407D01*
G03X23895500Y21792600I-5493J8582D01*
G01X23710700Y21977400D01*
Y22330200D01*
X23768200Y22387700D01*
G03X23760800Y22405100I-7190J7216D01*
G02X23720100Y22426100I-774J48440D01*
G03X23704700Y22427700I-8387J-5809D01*
G02X23655300I-24700J25850D01*
G03X23639900Y22426100I-7013J-7409D01*
G02X23567000Y22418100I-39902J27459D01*
G03X23553000I-7000J-7439D01*
G02X23471600Y22453600I-32973J35469D01*
G01Y22585600D01*
G02X23546000Y22626500I48424J33D01*
G03X23561700Y22635100I5494J8601D01*
G01Y22835000D01*
X23511700Y22885000D01*
Y22909200D01*
G02X23603700Y22918100I38372J83300D01*
G03X23602400Y22902700I5938J-8256D01*
G01X23638300Y22866800D01*
Y22615300D01*
G02X23639900Y22613100I-38359J-29579D01*
G03X23655300Y22611500I8387J5809D01*
G02X23704700I24700J-25850D01*
G03X23720100Y22613100I7013J7409D01*
G02X23790000Y22623700I39917J-27451D01*
G03X23797200Y22624500I3203J3977D01*
G02X23801700Y22628900I20003J-15957D01*
G01Y23693100D01*
X23788400Y23706400D01*
Y23722200D01*
X23751800D01*
G02X23726200Y23747800I-50J25550D01*
G01Y24032200D01*
G02X23751800Y24057800I25550J50D01*
G01X23901600D01*
G02X23927200Y24032200I50J-25550D01*
G01Y23928300D01*
X25805900D01*
X26032500Y23701600D01*
X26136000D01*
G02X26161600Y23676000I50J-25550D01*
G01Y23572500D01*
X26228300Y23505900D01*
Y23150600D01*
X26332200D01*
G02X26357800Y23125000I0J-25600D01*
G01Y23116600D01*
G03X26366600Y23113000I5130J-15D01*
G01X26405800Y23152300D01*
X27320900D01*
X27438300Y23034900D01*
Y22191600D01*
X27466000D01*
G02X27491600Y22166000I50J-25550D01*
G01Y22034000D01*
G02X27466000Y22008400I-25550J-50D01*
G01X27334000D01*
G02X27308400Y22034000I-50J25550D01*
G01Y22166000D01*
G02X27334000Y22191600I25550J50D01*
G01X27361700D01*
Y23003100D01*
X27289100Y23075700D01*
X26437600D01*
X26373600Y23011700D01*
X26357800D01*
Y22975000D01*
G02X26332200Y22949400I-25600J0D01*
G01X26047800D01*
G02X26022200Y22975000I0J25600D01*
G01Y23125000D01*
G02X26047800Y23150600I25600J0D01*
G01X26151700D01*
Y23474100D01*
X26107500Y23518400D01*
X26004000D01*
G02X25978400Y23544000I-50J25550D01*
G01Y23647500D01*
X25774100Y23851700D01*
X23927200D01*
Y23747800D01*
G02X23901600Y23722200I-25550J-50D01*
G01X23878300D01*
Y23156400D01*
G03X23896300Y23149800I10195J-41D01*
G02X23977800Y23073000I43178J-35823D01*
G01Y23040600D01*
G03X23995200Y23033400I10188J-3D01*
G01X24190100Y23228300D01*
X24699400D01*
Y23332200D01*
G02X24725000Y23357800I25600J0D01*
G01X24875000D01*
G02X24900600Y23332200I0J-25600D01*
G01Y23228300D01*
X25040600D01*
X25108700Y23160100D01*
G03X25126200Y23167300I7271J7194D01*
G01Y23332200D01*
G02X25151800Y23357800I25550J50D01*
G01X25301600D01*
G02X25327200Y23332200I50J-25550D01*
G01Y23228300D01*
X25343000D01*
X25355500Y23215800D01*
X25803500D01*
G02Y23139200I41000J-38300D01*
G01X25327200D01*
Y23047800D01*
G02X25301600Y23022200I-25550J-50D01*
G01X25164600D01*
Y22959100D01*
X25225400Y22898300D01*
X25422500D01*
G02Y22821700I41000J-38300D01*
G01X25326900D01*
Y22816200D01*
X25327000Y22815900D01*
G02X25327200Y22812200I-25373J-3227D01*
G01Y22660500D01*
G03X25344700Y22653300I10229J-6D01*
G01X25349300Y22658000D01*
X25642200D01*
X25658400Y22641800D01*
X25661500Y22643000D01*
G02X25800400Y22574700I38535J-97022D01*
G03X25817400Y22570300I9792J2790D01*
G01X25844300Y22597200D01*
Y22601500D01*
X25750200Y22695600D01*
X25621200D01*
G02X25595600Y22721200I50J25650D01*
G01Y22878800D01*
G02X25621200Y22904400I25650J-50D01*
G01X25750200D01*
X25780900Y22935100D01*
X26077600D01*
X26228300Y22784400D01*
Y22723800D01*
X26303700D01*
X26418100Y22838300D01*
X26795600D01*
Y22878800D01*
G02X26821200Y22904400I25650J-50D01*
G01X26978800D01*
G02X27004400Y22878800I-50J-25650D01*
G01Y22721200D01*
G02X26978800Y22695600I-25650J50D01*
G01X26821200D01*
G02X26795600Y22721200I50J25650D01*
G01Y22761700D01*
X26449900D01*
X26357800Y22669700D01*
Y22548400D01*
G02X26332200Y22522800I-25550J-50D01*
G01X26047800D01*
G02X26022200Y22548400I-50J25550D01*
G01Y22698200D01*
G02X26047800Y22723800I25550J50D01*
G01X26151700D01*
Y22752600D01*
X26045800Y22858500D01*
X25812700D01*
X25804400Y22850200D01*
Y22749800D01*
X25920900Y22633300D01*
Y22565400D01*
X25855200Y22499700D01*
Y22481700D01*
X25832900Y22459400D01*
G03X25840100Y22442000I7197J-7212D01*
G01X26741800D01*
X26804200Y22504400D01*
X26803000Y22507500D01*
G02X26861500Y22449000I97000J38500D01*
G01X26858400Y22450200D01*
X26773600Y22365400D01*
X25863100D01*
G03X25853400Y22352100I0J-10187D01*
G02X25855200Y22340400I-36514J-11606D01*
G01Y22227700D01*
X25764300Y22136800D01*
X25751600D01*
Y22128800D01*
X25754000Y22127300D01*
G02X25646000I-54000J-89300D01*
G01X25648400Y22128800D01*
Y22136800D01*
X25635700D01*
X25544800Y22227700D01*
Y22403500D01*
X25487100D01*
X25327200Y22243700D01*
Y21987800D01*
G02X25301600Y21962200I-25550J-50D01*
G01X25164600D01*
Y21894000D01*
X25255000Y21803600D01*
Y21787800D01*
X25291600D01*
G02X25317200Y21762200I50J-25550D01*
G01Y21506300D01*
X25325600Y21498000D01*
X25392900D01*
X26136800Y20754100D01*
Y20606000D01*
X25431500Y19900700D01*
G37*
G54D26*
X27654000Y22100000D03*
X26324000Y23610000D03*
X26984000D03*
G54D25*
X31300000Y22862000D03*
Y22100000D03*
X26900000Y21784000D03*
X25700000D03*
G54D27*
X26900000Y22292000D03*
G54D28*
X30475500Y20637500D03*
Y20267500D03*
%LPD*%
G75*
G36*
G01X23383900Y19977300D02*
X23226800Y20134400D01*
Y21256600D01*
X23525700Y21555500D01*
X23542800D01*
G03X23549000Y21556300I-148J25574D01*
G02X23561700Y21546400I2487J-9906D01*
G01Y21397200D01*
G02X23556800Y21392100I-5090J-14D01*
G03X23611700Y21318200I1696J-56083D01*
G01X23612100Y21319300D01*
X23638300Y21345500D01*
Y21346700D01*
G02X23653300Y21355600I10179J-65D01*
G03X23718300Y21446000I26750J49335D01*
G01Y21554500D01*
G02X23734000Y21563100I10206J-1D01*
G03X23793000Y21568500I26007J40860D01*
G02X23807000I7000J-7439D01*
G03X23873000I33000J35450D01*
G02X23887000I7000J-7439D01*
G03X23953100Y21568600I32996J35459D01*
G02X23967000I6950J-7492D01*
G03X24040000Y21576500I33101J35361D01*
G02X24055400Y21578100I8387J-5809D01*
G03X24115800Y21604000I24666J25857D01*
G01Y21736000D01*
G03X24055400Y21761900I-35734J43D01*
G02X24040000Y21763500I-7013J7409D01*
G03X24015100Y21782100I-39905J-27455D01*
G01X24014000Y21782500D01*
X23787300Y22009200D01*
Y22298400D01*
X23878300Y22389400D01*
Y22410300D01*
G03X23882800Y22414700I-15503J20357D01*
G02X23890000Y22415500I3997J-3177D01*
G03X23953100Y22418200I29980J38053D01*
G02X23967000I6950J-7492D01*
G03X24033100Y22418100I33104J35359D01*
G02X24047100I7000J-7439D01*
G03X24128600Y22453600I33039J35452D01*
G01Y22481300D01*
X24518000D01*
X24558600Y22440700D01*
X24602800D01*
X24737000Y22306600D01*
G02X24733400Y22297800I-3585J-3670D01*
G01X24725000D01*
G03X24699400Y22272200I0J-25600D01*
G01Y21987800D01*
G03X24725000Y21962200I25600J0D01*
G01X24875000D01*
G03X24900600Y21987800I0J25600D01*
G01Y22091700D01*
X24955800D01*
X25057900Y22193800D01*
G02X25075300Y22186600I7212J-7197D01*
G01Y21956100D01*
X25088000Y21943400D01*
Y21862200D01*
X25153700Y21796600D01*
G02X25150100Y21787800I-3585J-3670D01*
G01X25141800D01*
G03X25116200Y21762200I-50J-25550D01*
G01Y21477800D01*
G03X25141800Y21452200I25550J-50D01*
G01X25263100D01*
X25293800Y21421400D01*
X25361100D01*
X26060200Y20722300D01*
Y20637800D01*
X25773200Y20350800D01*
G02X25755800Y20358000I-7212J7197D01*
G01Y20406000D01*
G03X25679200I-38300J41000D01*
G01Y20335900D01*
X25447600Y20104300D01*
X24870700D01*
G02X24860600Y20116000I-5J10205D01*
G03X24686700Y20168300I-90618J13953D01*
G01X24589900D01*
X23977800Y20780400D01*
Y20809200D01*
X24015000Y20846400D01*
Y20862200D01*
X24051600D01*
G03X24077200Y20887800I50J25550D01*
G01Y21172200D01*
G03X24051600Y21197800I-25550J50D01*
G01X24015000D01*
Y21293800D01*
X24255100Y21533900D01*
X24257200D01*
G03X24312400Y21598600I-223J56088D01*
G02X24329700Y21607400I10074J1600D01*
G01X24731700Y21205400D01*
Y20975300D01*
G03X24808300I38300J-83300D01*
G01Y21237200D01*
X24384200Y21661300D01*
G02X24391400Y21678700I7197J7212D01*
G01X24461900D01*
X24603200Y21820000D01*
X24689400Y21733700D01*
Y21477800D01*
G03X24715000Y21452200I25600J0D01*
G01X24865000D01*
G03X24890600Y21477800I0J25600D01*
G01Y21762200D01*
G03X24865000Y21787800I-25600J0D01*
G01X24743600D01*
X24676300Y21855200D01*
Y22177400D01*
X24440600Y22413100D01*
X24320500D01*
G03X24290800Y22423200I-29602J-38328D01*
G01X24158800D01*
G03X24123300Y22341800I-31J-48427D01*
G02Y22327800I-7439J-7000D01*
G03Y22261800I35450J-33000D01*
G02Y22247800I-7439J-7000D01*
G03Y22181800I35450J-33000D01*
G02Y22167800I-7439J-7000D01*
G03Y22101800I35450J-33000D01*
G02Y22087800I-7439J-7000D01*
G03Y22021800I35450J-33000D01*
G02Y22007800I-7439J-7000D01*
G03X24120700Y21944800I35452J-33017D01*
G02X24119900Y21937600I-3977J-3203D01*
G03X24110300Y21917600I15991J-19980D01*
G01Y21872000D01*
G03X24119900Y21852000I25591J-20D01*
G02X24120700Y21844800I-3177J-3997D01*
G03X24158800Y21766400I38053J-29965D01*
G01X24186500D01*
Y21750600D01*
X24274400Y21662700D01*
G02X24265600Y21645400I-7200J-7226D01*
G03X24200900Y21590200I-8612J-55423D01*
G01Y21588100D01*
X23938400Y21325600D01*
Y21197800D01*
X23901800D01*
G03X23876200Y21172200I-50J-25550D01*
G01Y20887800D01*
G03X23901800Y20862200I25550J-50D01*
G01X23910100D01*
G02X23913700Y20853400I15J-5130D01*
G01X23901200Y20841000D01*
Y20748600D01*
X24528100Y20121700D01*
G02X24520900Y20104300I-7197J-7212D01*
G01X24199300D01*
X24017200Y20286300D01*
Y20542200D01*
G03X23991600Y20567800I-25550J50D01*
G01X23841800D01*
G03X23816200Y20542200I-50J-25550D01*
G01Y20257800D01*
G03X23841800Y20232200I25550J-50D01*
G01X23963100D01*
X24167500Y20027700D01*
X24670800D01*
X24711000Y19987500D01*
X24829000D01*
X24869200Y20027700D01*
X25425500D01*
G02X25432700Y20010300I3J-10188D01*
G01X25399700Y19977300D01*
X23383900D01*
G37*
G36*
G01X25126200Y22708300D02*
X25110400D01*
X24893900Y22491800D01*
X24891800D01*
G03X24948100Y22435500I200J-56100D01*
G01Y22437600D01*
X25108700Y22598300D01*
G02X25126200Y22591100I7271J-7194D01*
G01Y22527800D01*
G03X25127700Y22518900I25586J-264D01*
G01X25128800Y22515900D01*
X25049900Y22437000D01*
Y22350400D01*
X25024500Y22325000D01*
Y22268800D01*
X24924000Y22168300D01*
X24900600D01*
Y22272200D01*
G03X24875000Y22297800I-25600J0D01*
G01X24838300D01*
Y22313600D01*
X24634600Y22517300D01*
X24590400D01*
X24549800Y22557900D01*
X24128600D01*
Y22585600D01*
G03X24054100Y22626500I-48457J35D01*
G02X24038400Y22635100I-5494J8601D01*
G01Y22859300D01*
X24041300Y22862200D01*
Y22971100D01*
X24221900Y23151700D01*
X24699400D01*
Y23047800D01*
G03X24725000Y23022200I25600J0D01*
G01X24875000D01*
G03X24900600Y23047800I0J25600D01*
G01Y23151700D01*
X25008800D01*
X25075300Y23085200D01*
Y23016100D01*
X25088000Y23003400D01*
Y22927300D01*
X25160100Y22855300D01*
G02X25152900Y22837800I-7194J-7271D01*
G01X25151800D01*
G03X25126200Y22812200I-50J-25550D01*
G01Y22708300D01*
G37*
%LPC*%
G75*
G36*
G01X23462200Y20887800D02*
Y21172200D01*
G02X23475000Y21185200I12900J100D01*
G01X23625000D01*
G02X23637800Y21172200I-100J-12900D01*
G01Y20887800D01*
G02X23625000Y20874800I-12900J-100D01*
G01X23475000D01*
G02X23462200Y20887800I100J12900D01*
G37*
G36*
G01X23402200Y20257800D02*
Y20542200D01*
G02X23415000Y20555200I12900J100D01*
G01X23565000D01*
G02X23577800Y20542200I-100J-12900D01*
G01Y20257800D01*
G02X23565000Y20244800I-12900J-100D01*
G01X23415000D01*
G02X23402200Y20257800I100J12900D01*
G37*
G36*
G01X24712200Y22527800D02*
Y22812200D01*
G02X24725000Y22825200I12900J100D01*
G01X24875000D01*
G02X24887800Y22812200I-100J-12900D01*
G01Y22527800D01*
G02X24875000Y22514800I-12900J-100D01*
G01X24725000D01*
G02X24712200Y22527800I100J12900D01*
G37*
%LPD*%
G75*
G54D10*
X23550000Y21030000D03*
X23976700D03*
X23490000Y20400000D03*
X23916700D03*
X23400000Y23890000D03*
X23826700D03*
X24790000Y21620000D03*
X25216700D03*
X24800000Y22130000D03*
X25226700D03*
X24800000Y23190000D03*
X25226700D03*
X24800000Y22670000D03*
X25226700D03*
X27290000Y20950000D03*
X27716700D03*
X27800000Y23400000D03*
X28226700D03*
X28700000Y20800000D03*
X29126700D03*
X28700000Y21300000D03*
X29126700D03*
X28700000Y21800000D03*
X29126700D03*
X29300000Y23100000D03*
X30100000Y21300000D03*
X29673300D03*
X29726700Y23100000D03*
X30000000Y23900000D03*
X30473300Y21300000D03*
X30426700Y23900000D03*
X30900000Y21300000D03*
G54D11*
X23520000Y21670000D03*
X23840000Y22519600D03*
X29840000Y21860000D03*
X30160000Y22709600D03*
G54D20*
X25700000Y22800000D03*
X26900000D03*
X28900000Y24000000D03*
G54D21*
X30758000Y20267500D03*
X31218000D03*
G54D12*
X23600000Y21670000D03*
X23680000D03*
X23760000D03*
X23840000D03*
X23920000D03*
Y22519600D03*
X23760000D03*
X23680000D03*
X23600000D03*
X23520000D03*
X24000100Y21670000D03*
X24080100D03*
Y22519600D03*
X24000100D03*
X29920000Y21860000D03*
X30000000D03*
Y22709600D03*
X29920000D03*
X29840000D03*
X30080000Y21860000D03*
X30160000D03*
X30240000D03*
X30320100D03*
X30400100D03*
Y22709600D03*
X30320100D03*
X30240000D03*
X30080000D03*
G54D13*
X23680000Y21405000D03*
X23558500Y21336000D03*
X23939500Y23114000D03*
X23685500Y22796500D03*
X24257000Y21590000D03*
X24080100Y22338400D03*
X24511000Y22098000D03*
X24447500Y21844000D03*
X24130000Y22923500D03*
X24892000Y22435700D03*
X25463500Y22860000D03*
X25717500Y20447000D03*
X25908000Y22098000D03*
X25844500Y23177500D03*
X27368500Y21907500D03*
X28194000Y20955000D03*
X28956000Y21336000D03*
Y21653500D03*
X30099000Y21717000D03*
X30035500Y21590000D03*
X29849500Y22420100D03*
X30099000Y22034500D03*
X29400500Y22733000D03*
Y22542500D03*
X30861000Y20955000D03*
X30480000Y21272500D03*
X30289500Y22161500D03*
X30296100Y22472300D03*
X30861000Y22288500D03*
X30670500Y21971000D03*
G54D22*
X30475500Y20637500D03*
Y20267500D03*
X31500500D03*
Y20637500D03*
G54D14*
X23375200Y22374800D03*
Y22294800D03*
Y22214800D03*
Y22134800D03*
Y22054800D03*
Y21894800D03*
Y21814800D03*
X24224800D03*
Y21974800D03*
Y22054800D03*
Y22134800D03*
Y22214800D03*
Y22294800D03*
Y22374800D03*
X29695200Y22404800D03*
Y22324800D03*
Y22244800D03*
Y22084800D03*
Y22004800D03*
Y22564800D03*
Y22484800D03*
X30544800Y22004800D03*
Y22164800D03*
Y22244800D03*
Y22324800D03*
Y22404800D03*
Y22484800D03*
Y22564800D03*
G54D23*
X31053000Y20267500D03*
X31118000D03*
X30858000D03*
X30923000D03*
X30988000D03*
G54D24*
G01X25216700Y21620000D02*
Y21552700D01*
X25309700Y21459700D01*
X25377000D01*
X26098500Y20738200D01*
Y20621900D01*
X25415600Y19939000D01*
X23368000D01*
X23188500Y20118500D01*
Y21272500D01*
X23520000Y21604000D01*
Y21670000D01*
G01X25717500Y20447000D02*
Y20320000D01*
X25463500Y20066000D01*
X24853300D01*
X24813100Y20025800D01*
X24726900D01*
X24686700Y20066000D01*
X24183400D01*
X23916700Y20332700D01*
Y20400000D01*
G01X23550000Y21030000D02*
Y20627700D01*
G01X23490000Y20567700D02*
Y20400000D01*
G01X23550000Y20627700D02*
X23490000Y20567700D01*
G01Y20239700D02*
Y20400000D01*
G01X23397000D02*
X23490000D01*
G01D02*
X23583000D01*
G01X23976700Y21030000D02*
Y20862300D01*
X23939500Y20825100D01*
Y20764500D01*
X24574000Y20130000D01*
X24770000D01*
G01X23680000Y21670000D02*
Y21405000D01*
G01X23600000Y21670000D02*
Y21361400D01*
X23574600Y21336000D01*
X23558500D01*
G01X23643000Y21190300D02*
X23550000Y21097300D01*
Y21030000D01*
G01X24080100Y21526500D02*
X24066500D01*
Y21525800D01*
X24045800D01*
X23710300Y21190300D01*
X23643000D01*
G01X23457000Y21030000D02*
X23550000D01*
G01D02*
X23643000D01*
G01X24000100Y21670000D02*
Y21742200D01*
X23749000Y21993300D01*
Y22314300D01*
X23840000Y22405300D01*
Y22519600D01*
G01X23939500Y23114000D02*
Y22894700D01*
X23920000Y22875200D01*
Y22519600D01*
G01X23840000D02*
Y23709000D01*
X23826700Y23722300D01*
Y23890000D01*
G01X23680000Y22519600D02*
Y22697400D01*
G01D02*
X23685500Y22702900D01*
Y22796500D01*
G01X23600000Y22519600D02*
Y22850900D01*
X23550000Y22900900D01*
Y22992500D01*
G01X23826700Y23890000D02*
X25790000D01*
X26070000Y23610000D01*
G01X23550000Y23310000D02*
Y23672700D01*
X23400000Y23822700D01*
Y23890000D01*
G01X24080100Y21670000D02*
Y21526500D01*
G01Y21670000D02*
Y21776900D01*
G01Y21670000D02*
X24121000D01*
G01X24274300Y21717000D02*
X24770000Y21221300D01*
Y20892000D01*
G01X23976700Y21030000D02*
Y21309700D01*
X24257000Y21590000D01*
G01X24080100Y22519600D02*
X24533900D01*
X24574500Y22479000D01*
X24618700D01*
X24800000Y22297700D01*
Y22130000D01*
G01X24224800Y21814800D02*
Y21766500D01*
X24274300Y21717000D01*
G01X24511000Y22098000D02*
X24574500Y22034500D01*
Y21845500D01*
X24446000Y21717000D01*
X24274300D01*
G01X24447500Y21844000D02*
X24396700Y21894800D01*
X24224800D01*
G01X24790000Y21620000D02*
Y21687300D01*
X24638000Y21839300D01*
Y22161500D01*
X24424700Y22374800D01*
X24224800D01*
G01X24000100Y22519600D02*
Y22875200D01*
X24003000Y22878100D01*
Y22987000D01*
X24206000Y23190000D01*
X24800000D01*
G01Y22670000D02*
X24383500D01*
G01D02*
X24130000Y22923500D01*
G01X25700000Y22800000D02*
X25882600Y22617400D01*
Y22581300D01*
X25816900Y22515600D01*
Y22497600D01*
X25748400Y22429100D01*
X25651600D01*
X25583100Y22497600D01*
Y22515600D01*
X25556200Y22542500D01*
X25463500D01*
X25231400Y22310400D01*
X25136000D01*
X25113600Y22288000D01*
Y21972000D01*
X25126300Y21959300D01*
Y21878100D01*
X25216700Y21787700D01*
Y21620000D01*
G01X24800000Y22130000D02*
X24939900D01*
X25062800Y22252900D01*
Y22309100D01*
X25088200Y22334500D01*
Y22421100D01*
X25156700Y22489600D01*
X25317400D01*
X25339800Y22512000D01*
Y22594300D01*
X25365200Y22619700D01*
X25626300D01*
X25700000Y22546000D01*
G01X25226700Y22670000D02*
X25126300D01*
X24892000Y22435700D01*
G01X25226700Y22130000D02*
Y22197300D01*
X25471200Y22441800D01*
X25567000D01*
X25583100Y22425700D01*
Y22243600D01*
X25651600Y22175100D01*
X25748400D01*
X25816900Y22243600D01*
Y22340400D01*
X25800100Y22357200D01*
Y22378300D01*
X25825500Y22403700D01*
X26757700D01*
X26900000Y22546000D01*
G01X25463500Y22860000D02*
X25209500D01*
X25126300Y22943200D01*
Y23019300D01*
X25113600Y23032000D01*
Y23101100D01*
X25024700Y23190000D01*
X24800000D01*
G01Y22509700D02*
Y22670000D01*
G01D02*
Y22830300D01*
G01Y22670000D02*
X24893000D01*
G01X25844500Y23177500D02*
X25339600D01*
X25327100Y23190000D01*
X25226700D01*
G01X25908000Y22098000D02*
Y21984700D01*
X26142700Y21750000D01*
X26210000D01*
G01X25700000Y21687200D02*
Y21784000D01*
G01D02*
Y21880800D01*
G01X25603200Y21784000D02*
X25700000D01*
G01D02*
X25796800D01*
G01X26210000Y22176700D02*
X26761300D01*
X26900000Y22038000D01*
G01X26190000Y23050000D02*
Y23490000D01*
X26070000Y23610000D01*
G01X26190000Y23050000D02*
X26357700D01*
X26421700Y23114000D01*
X27305000D01*
X27400000Y23019000D01*
Y22100000D01*
G01X26900000Y22800000D02*
X26434000D01*
X26257300Y22623300D01*
X26190000D01*
G01X25700000Y22800000D02*
X25796800Y22896800D01*
X26061700D01*
X26190000Y22768500D01*
Y22623300D01*
G01X26239900Y23610000D02*
X26324000D01*
G01X26900000Y21784000D02*
X27290000Y21394000D01*
G01X26900000Y21687200D02*
Y21784000D01*
G01D02*
Y21880800D01*
G01X26803200Y21784000D02*
X26900000D01*
G01D02*
X26996800D01*
G01X26984000Y23610000D02*
X27194000Y23400000D01*
G01X26324000Y23525900D02*
Y23610000D01*
G01D02*
Y23694100D01*
G01Y23610000D02*
X26408100D01*
G01X26984000Y23525900D02*
Y23610000D01*
G01D02*
Y23694100D01*
G01X26899900Y23610000D02*
X26984000D01*
G01D02*
X27068100D01*
G01X27290000Y20789700D02*
Y20950000D01*
G01X28194000Y20955000D02*
X27822100D01*
X27817100Y20950000D01*
X27716700D01*
G01X27290000Y21394000D02*
Y20950000D01*
G01X27197000D02*
X27290000D01*
G01D02*
X27383000D01*
G01X29126700Y21232700D02*
X28976000Y21082000D01*
X28511500D01*
X27686000Y21907500D01*
X27368500D01*
G01X27800000Y22246000D02*
X27654000Y22100000D01*
G01X27719500Y22034500D02*
X27654000Y22100000D01*
G01X28365000Y21800000D02*
X28130500Y22034500D01*
X27719500D01*
G01X27654000Y22015900D02*
Y22100000D01*
G01D02*
Y22184100D01*
G01X27569900Y22100000D02*
X27654000D01*
G01D02*
X27738100D01*
G01X27194000Y23400000D02*
X27800000D01*
G01D02*
Y22246000D01*
G01X28700000Y21800000D02*
X28365000D01*
G01X27800000Y23400000D02*
Y23560300D01*
G01Y23400000D02*
X27893000D01*
G01X28226700D02*
X28738000D01*
X28900000Y23238000D01*
G01X29126700Y20800000D02*
Y21232700D01*
G01X30571500Y20800000D02*
X30342000D01*
X30279400Y20737400D01*
Y20719500D01*
X30257000Y20697100D01*
X30239100D01*
X30179500Y20637500D01*
X30018500D01*
X29958900Y20697100D01*
X29941000D01*
X29918600Y20719500D01*
Y20737400D01*
X29856000Y20800000D01*
X29328700D01*
X29239800Y20711100D01*
Y20642000D01*
X29217400Y20619600D01*
X29199500D01*
X29144700Y20564800D01*
X29108700D01*
X29053900Y20619600D01*
X29036000D01*
X29013600Y20642000D01*
Y20711100D01*
X28924700Y20800000D01*
X28700000D01*
G01Y21300000D02*
X28920000D01*
X28956000Y21336000D01*
G01Y21653500D02*
X28995600Y21693100D01*
Y21769300D01*
X29026300Y21800000D01*
X29126700D01*
G01Y21232700D02*
Y21300000D01*
G01D02*
X29227100D01*
X29527500Y20999600D01*
Y20955000D01*
X29552900Y20929600D01*
X29946600D01*
X29972000Y20955000D01*
Y21556400D01*
X29966900Y21561500D01*
Y21618500D01*
X29972000Y21623600D01*
Y21654200D01*
X30000000Y21682200D01*
Y21860000D01*
G01X28700000Y21632300D02*
Y21800000D01*
G01X29568200Y22030100D02*
Y21884600D01*
X29334500Y21650900D01*
X29256700D01*
Y21581600D01*
X29201600Y21526500D01*
X28805800D01*
X28700000Y21632300D01*
G01X29695200Y22164800D02*
X29424200D01*
X29126700Y21867300D01*
Y21800000D01*
G01X28700000Y22784000D02*
Y21800000D01*
G01X30080000Y22709600D02*
Y22823900D01*
X30043900Y22860000D01*
X29337000D01*
X29273500Y22796500D01*
Y22411700D01*
X29086800Y22225000D01*
X29019500D01*
G01X28900000Y22984000D02*
X28700000Y22784000D01*
G01X28900000Y22887200D02*
Y22984000D01*
G01D02*
Y23080800D01*
G01X28803200Y22984000D02*
X28900000D01*
G01X29300000Y23100000D02*
X29473500D01*
X29613600Y22959900D01*
Y22942000D01*
X29636000Y22919600D01*
X29817400D01*
X29830100Y22932300D01*
X29980800D01*
X30017500Y22969000D01*
X30053500D01*
X30160000Y22862500D01*
Y22709600D01*
G01X29019500Y22651700D02*
Y23118500D01*
X28900000Y23238000D01*
G01Y23746000D02*
X29160000D01*
X29332700Y23573300D01*
X29400000D01*
G01X28900000Y23492000D02*
X28973700Y23418300D01*
X29301800D01*
X29620100Y23100000D01*
X29726700D01*
G01X30426700Y23900000D02*
X30326300D01*
X30096300Y24130000D01*
X29030000D01*
X28900000Y24000000D01*
G01X29673300Y21139700D02*
Y21300000D01*
G01D02*
Y21460300D01*
G01X29580300Y21300000D02*
X29673300D01*
G01D02*
X29766300D01*
G01X30035500Y21590000D02*
X30093900Y21648400D01*
X30167600D01*
Y21785600D01*
X30160000D01*
Y21860000D01*
G01X29849500Y22420100D02*
Y22476100D01*
X29845000Y22480600D01*
Y22590300D01*
X29840000Y22595300D01*
Y22709600D01*
G01X30289500Y22161500D02*
X30335000Y22207000D01*
Y22243000D01*
X30253200Y22324800D01*
X29923300D01*
X29894600Y22296100D01*
X29795400D01*
X29766700Y22324800D01*
X29695200D01*
G01X30296100Y22472300D02*
X30228600Y22404800D01*
X29931400D01*
X29876700Y22350100D01*
X29822200D01*
X29786500Y22385800D01*
X29777600D01*
X29758600Y22404800D01*
X29695200D01*
G01X30000000Y21860000D02*
X30080000D01*
G01X30000000D02*
Y21926000D01*
X30034300Y21960300D01*
Y21969800D01*
X30099000Y22034500D01*
G01X29673300Y21848600D02*
Y21862800D01*
G01X29802100Y22084800D02*
X29831800D01*
X29845000Y22098000D01*
X29908500D01*
X30035500Y22225000D01*
X30015700Y22244800D01*
X29802100D01*
G01X29695200Y22084800D02*
X29676200Y22065800D01*
X29603900D01*
X29568200Y22030100D01*
G01X29588300Y22084800D02*
X29695200D01*
G01D02*
X29802100D01*
G01X29588300Y22244800D02*
X29695200D01*
G01D02*
X29802100D01*
G01X29400500Y22733000D02*
X29462000Y22671500D01*
X29636800D01*
X29695200Y22613100D01*
Y22564800D01*
G01X29400500Y22542500D02*
X29458200Y22484800D01*
X29695200D01*
G01X30240000Y22709600D02*
Y23065200D01*
X30226000Y23079200D01*
Y23241000D01*
X30035500Y23431500D01*
Y23558500D01*
X29594000Y24000000D01*
X29400000D01*
G01X30320100Y22709600D02*
Y23598600D01*
X30289500Y23629200D01*
Y23812500D01*
X30202000Y23900000D01*
X30000000D01*
G01X30099000Y20383500D02*
Y20092900D01*
X30124400Y20067500D01*
X31027600D01*
X31053000Y20092900D01*
Y20267500D01*
G01X30320100Y21730500D02*
Y20964000D01*
X30166300Y20810200D01*
X30099000D01*
G01X30988000Y20267500D02*
Y20447000D01*
X30973900Y20461100D01*
Y20469500D01*
X30670500Y20772900D01*
Y20955000D01*
X30797500Y21082000D01*
X31314700D01*
X31432700Y21200000D01*
X31500000D01*
G01X30923000Y20384900D02*
X30571500Y20736400D01*
Y20800000D01*
G01X30900000Y21300000D02*
Y21303800D01*
X30807000Y21396800D01*
X30739700D01*
X30607000Y21529500D01*
Y21564600D01*
X30581600Y21590000D01*
X30460600D01*
X30320100Y21730500D01*
G01X30240000Y21860000D02*
Y21507300D01*
X30100000Y21367300D01*
Y21300000D01*
G01X30080000Y21860000D02*
Y21717000D01*
X30099000D01*
G01X30861000Y22288500D02*
X30758900D01*
X30722600Y22324800D01*
X30544800D01*
G01Y22004800D02*
X30636700D01*
X30670500Y21971000D01*
G01X30478800Y22404800D02*
X30544800D01*
G01D02*
X30900400D01*
G01D02*
X30911100Y22415500D01*
X30924500D01*
X30988000Y22352000D01*
Y22034500D01*
X30924500Y21971000D01*
X30670500D01*
G01X30544800Y21963900D02*
Y22004800D01*
G01X30437900D02*
X30544800D01*
G01X30320100Y21860000D02*
Y21730500D01*
G01X30400100Y21860000D02*
X30454400D01*
X30470400Y21844000D01*
X30797500D01*
X31014800Y21626700D01*
X31500000D01*
G01X30400100Y22495200D02*
Y22709600D01*
G01D02*
Y22816500D01*
G01Y22709600D02*
X30441000D01*
G01X31118000Y20267500D02*
Y20383500D01*
X31115000D01*
Y20510500D01*
X30861000Y20764500D01*
Y20955000D01*
G01X30923000Y20267500D02*
Y20384900D01*
G01X30900000Y21236500D02*
Y21300000D01*
G54D15*
X23375200Y21974800D03*
X24224800Y21894800D03*
X29695200Y22164800D03*
X30544800Y22084800D03*
G54D16*
X23550000Y22992500D03*
X24770000Y20130000D03*
Y20892000D03*
X26324000Y23610000D03*
X26984000D03*
X27654000Y22100000D03*
X31300000D03*
Y22862000D03*
G54D17*
X23550000Y23310000D03*
X26070000Y23610000D03*
X26730000D03*
X27400000Y22100000D03*
G54D18*
X25700000Y22292000D03*
Y22038000D03*
Y21784000D03*
Y22546000D03*
X26900000Y22292000D03*
Y22038000D03*
Y21784000D03*
Y22546000D03*
X28900000Y23238000D03*
Y22984000D03*
Y23746000D03*
Y23492000D03*
G54D19*
X26210000Y21750000D03*
Y22176700D03*
X26190000Y23050000D03*
Y22623300D03*
X29019500Y22225000D03*
Y22651700D03*
X29400000Y24000000D03*
Y23573300D03*
X30099000Y20383500D03*
Y20810200D03*
X31500000Y21200000D03*
Y21626700D03*
M02*
